<svg width="18" height="16" viewBox="0 0 18 16" fill="none" xmlns="http://www.w3.org/2000/svg">
<path d="M17 9.99986C17.2549 10.0001 17.5 10.0977 17.6854 10.2727C17.8707 10.4477 17.9822 10.6868 17.9972 10.9413C18.0121 11.1957 17.9293 11.4462 17.7657 11.6417C17.6021 11.8371 17.3701 11.9628 17.117 11.9929L17 11.9999H3.41399L5.70699 14.2929C5.88634 14.4728 5.99046 14.7143 5.99822 14.9682C6.00597 15.2222 5.91678 15.4696 5.74874 15.6601C5.58071 15.8507 5.34644 15.9702 5.09352 15.9943C4.84059 16.0184 4.58798 15.9453 4.38699 15.7899L4.29299 15.7069L0.462991 11.8769C-0.202009 11.2129 0.223991 10.0939 1.12599 10.0059L1.24099 9.99986H17ZM12.293 0.292861C12.4652 0.120685 12.6943 0.0172534 12.9373 0.00197221C13.1803 -0.013309 13.4206 0.06061 13.613 0.209861L13.707 0.292861L17.537 4.12286C18.202 4.78686 17.776 5.90586 16.874 5.99386L16.759 5.99986H0.999991C0.745111 5.99958 0.499959 5.90198 0.314622 5.72701C0.129286 5.55204 0.0177558 5.31291 0.00281867 5.05847C-0.0121185 4.80402 0.0706654 4.55348 0.234256 4.35803C0.397846 4.16258 0.629895 4.03696 0.882991 4.00686L0.999991 3.99986H14.586L12.293 1.70686C12.1055 1.51933 12.0002 1.26503 12.0002 0.999861C12.0002 0.734697 12.1055 0.480389 12.293 0.292861Z" fill="white"/>
</svg>
