<svg width="56" height="56" viewBox="0 0 56 56" fill="none" xmlns="http://www.w3.org/2000/svg">
<path d="M28.047 4.66675C41.3003 4.66675 51.3337 15.533 51.3337 27.965C51.3337 42.3833 39.5737 51.3334 28.0003 51.3334C24.1737 51.3334 19.927 50.3052 16.5203 48.2955C15.3303 47.5711 14.327 47.0336 13.0437 47.4543L8.33033 48.8564C7.14033 49.2303 6.06699 48.2955 6.41699 47.0336L7.98033 41.7991C8.23699 41.0747 8.19033 40.3035 7.81699 39.696C5.81033 36.0038 4.66699 31.961 4.66699 28.0351C4.66699 15.7434 14.4903 4.66675 28.047 4.66675ZM38.7103 25.0674C37.0537 25.0674 35.7237 26.3993 35.7237 28.0585C35.7237 29.6943 37.0537 31.0497 38.7103 31.0497C40.367 31.0497 41.697 29.6943 41.697 28.0585C41.697 26.3993 40.367 25.0674 38.7103 25.0674ZM27.9537 25.0674C26.3203 25.044 24.967 26.3993 24.967 28.0351C24.967 29.6943 26.297 31.0263 27.9537 31.0497C29.6103 31.0497 30.9403 29.6943 30.9403 28.0585C30.9403 26.3993 29.6103 25.0674 27.9537 25.0674ZM17.197 25.0674C15.5403 25.0674 14.2103 26.3993 14.2103 28.0585C14.2103 29.6943 15.5637 31.0497 17.197 31.0497C18.8537 31.0263 20.1837 29.6943 20.1837 28.0585C20.1837 26.3993 18.8537 25.0674 17.197 25.0674Z" fill="url(#paint0_linear_2264_5280)"/>
<defs>
<linearGradient id="paint0_linear_2264_5280" x1="28.0003" y1="4.66675" x2="28.0003" y2="51.3334" gradientUnits="userSpaceOnUse">
<stop stop-color="#738961"/>
<stop offset="1" stop-color="#7FB04F"/>
</linearGradient>
</defs>
</svg>
