<svg width="56" height="56" viewBox="0 0 56 56" fill="none" xmlns="http://www.w3.org/2000/svg">
<path d="M26.88 50.1671C10.3421 50.1671 4.47998 44.305 4.47998 27.7671C4.47998 11.2291 10.3421 5.36707 26.88 5.36707C27.8073 5.36707 28.56 6.11971 28.56 7.04707C28.56 7.97443 27.8073 8.72707 26.88 8.72707C12.2886 8.72707 7.83998 13.1757 7.83998 27.7671C7.83998 42.3584 12.2886 46.8071 26.88 46.8071C41.4713 46.8071 45.92 42.3584 45.92 27.7671C45.92 26.8397 46.6726 26.0871 47.6 26.0871C48.5273 26.0871 49.28 26.8397 49.28 27.7671C49.28 44.305 43.4179 50.1671 26.88 50.1671Z" fill="url(#paint0_linear_3277_5518)"/>
<path fill-rule="evenodd" clip-rule="evenodd" d="M43.0895 21.9115L45.461 19.2339C48.0415 16.3197 47.7682 11.8509 44.8562 9.26816C43.445 8.01824 41.6216 7.39104 39.749 7.50752C37.8674 7.62176 36.1426 8.464 34.8927 9.8752L21.7125 24.7667C17.6268 29.3767 20.4223 35.4717 20.5432 35.7293C20.7426 36.1527 21.11 36.4752 21.5557 36.6141C21.6834 36.6567 23.1708 37.1114 25.1308 37.1114C27.3372 37.1114 30.1439 36.5312 32.2764 34.121L42.7331 22.3139C42.8021 22.2573 42.8675 22.1944 42.9285 22.1253C42.9887 22.0573 43.0425 21.9858 43.0895 21.9115ZM23.3141 33.5811C24.7186 33.8365 27.8188 34.0874 29.7608 31.8944L39.2829 21.143L33.7467 16.2399L24.2303 26.9955C22.2412 29.2378 22.8751 32.2282 23.3141 33.5811ZM35.9733 13.7236L41.5119 18.6261L42.9455 17.0074C44.2962 15.4797 44.1551 13.1366 42.6296 11.7859C41.8882 11.1318 40.9272 10.7981 39.9528 10.8608C38.9672 10.9235 38.0645 11.3626 37.4082 12.1018L35.9733 13.7236Z" fill="url(#paint1_linear_3277_5518)"/>
<defs>
<linearGradient id="paint0_linear_3277_5518" x1="26.88" y1="5.36707" x2="26.88" y2="50.1671" gradientUnits="userSpaceOnUse">
<stop stop-color="#738961"/>
<stop offset="1" stop-color="#7FB04F"/>
</linearGradient>
<linearGradient id="paint1_linear_3277_5518" x1="33.3647" y1="7.49377" x2="33.3647" y2="37.1114" gradientUnits="userSpaceOnUse">
<stop stop-color="#738961"/>
<stop offset="1" stop-color="#7FB04F"/>
</linearGradient>
</defs>
</svg>
