<svg width="20" height="20" viewBox="0 0 20 20" fill="none" xmlns="http://www.w3.org/2000/svg">
<path d="M9.6001 17.9167C3.6937 17.9167 1.6001 15.8231 1.6001 9.91675C1.6001 4.01035 3.6937 1.91675 9.6001 1.91675C9.9313 1.91675 10.2001 2.18555 10.2001 2.51675C10.2001 2.84795 9.9313 3.11675 9.6001 3.11675C4.3889 3.11675 2.8001 4.70555 2.8001 9.91675C2.8001 15.1279 4.3889 16.7167 9.6001 16.7167C14.8113 16.7167 16.4001 15.1279 16.4001 9.91675C16.4001 9.58555 16.6689 9.31675 17.0001 9.31675C17.3313 9.31675 17.6001 9.58555 17.6001 9.91675C17.6001 15.8231 15.5065 17.9167 9.6001 17.9167Z" fill="black"/>
<path fill-rule="evenodd" clip-rule="evenodd" d="M15.3894 7.82558L16.2364 6.8693C17.158 5.8285 17.0604 4.2325 16.0204 3.3101C15.5164 2.8637 14.8652 2.6397 14.1964 2.6813C13.5244 2.7221 12.9084 3.0229 12.462 3.5269L7.75475 8.84531C6.29555 10.4917 7.29395 12.6685 7.33715 12.7605C7.40835 12.9117 7.53955 13.0269 7.69875 13.0765C7.74435 13.0917 8.27555 13.2541 8.97555 13.2541C9.76355 13.2541 10.766 13.0469 11.5276 12.1861L15.2621 7.96929C15.2868 7.94909 15.3101 7.92663 15.3319 7.90193C15.3534 7.87767 15.3726 7.85212 15.3894 7.82558ZM8.32675 11.9933C8.82835 12.0845 9.93555 12.1741 10.6292 11.3909L14.0299 7.55112L12.0527 5.80001L8.65395 9.64131C7.94355 10.4421 8.16995 11.5101 8.32675 11.9933ZM12.8479 4.90133L14.826 6.65224L15.338 6.0741C15.8204 5.5285 15.77 4.6917 15.2252 4.2093C14.9604 3.9757 14.6172 3.8565 14.2692 3.8789C13.9172 3.9013 13.5948 4.0581 13.3604 4.3221L12.8479 4.90133Z" fill="black"/>
</svg>
