<svg width="240" height="265" viewBox="0 0 240 265" fill="none" xmlns="http://www.w3.org/2000/svg">
<path d="M110.435 59.8543C110.327 59.7605 110.19 59.705 110.047 59.6965C109.904 59.6879 109.762 59.7268 109.643 59.807C108.984 60.1447 108.413 60.8201 107.944 61.607L107.975 61.455C108.899 56.9466 108.474 56.7035 108.189 56.5448C108.025 56.4502 107.754 56.4131 107.397 56.7609C106.507 57.6457 105.698 59.8002 105.107 61.7252C105.246 58.9357 105.215 55.9099 104.495 55.4844C104.395 55.4269 104.28 55.3998 104.165 55.4064C104.05 55.413 103.939 55.453 103.846 55.5215C103.238 55.9234 102.793 57.3046 102.487 58.8986C102.351 53.0529 101.688 52.8402 101.331 52.7253C100.975 52.6105 100.699 52.7895 100.407 53.2251C99.5815 54.4544 99.2587 56.7238 99.1669 58.9661C98.2902 53.9613 97.6412 53.8195 97.3218 53.7486C97.1179 53.7047 96.8189 53.7486 96.5505 54.1842C96.0306 55.0386 95.8709 56.7981 95.8709 58.7365C95.9145 61.4416 96.1244 64.1415 96.4995 66.8211C96.8835 69.5228 91.9666 74.4195 90.4511 75.8615C83.0537 82.8857 72.6286 84.5675 63.2672 85.199L62.557 85.2429H62.4958C61.7559 85.2486 61.0209 85.3624 60.3143 85.5806C57.4022 86.6545 56.9163 91.4735 57.3241 93.8172C57.8202 96.7721 60.0629 99.2205 63.9875 101.074C65.0257 101.564 66.1251 101.914 67.2564 102.115C67.5622 102.172 67.8748 102.216 68.1875 102.253C68.7697 102.317 69.3551 102.348 69.9408 102.348C75.4897 102.348 81.3139 99.5683 86.8254 96.502C96.0062 91.452 103.046 83.2805 106.653 73.4874C107.267 71.7906 107.785 70.0611 108.206 68.307C109.381 65.4906 111.264 60.6378 110.435 59.8543ZM107.546 68.0943L107.529 68.1483C107.11 69.8864 106.594 71.6 105.983 73.2814C102.434 82.9224 95.5034 90.9671 86.4652 95.938C80.4678 99.2711 74.1102 102.263 68.235 101.605C67.8646 101.564 67.5011 101.507 67.1443 101.436C66.143 101.241 65.1704 100.923 64.2492 100.487C60.5352 98.7274 58.4216 96.4547 57.9629 93.7328C57.6231 91.6491 58.0139 87.1644 60.5216 86.2425C61.1659 86.0447 61.8352 85.9389 62.5094 85.9284H62.5672L63.5288 85.8643C72.9446 85.2125 83.3969 83.4699 90.886 76.3579C92.9044 74.4397 97.5529 69.6646 97.1349 66.7367C96.7408 63.9844 95.966 56.4266 97.1077 54.5422C97.1264 54.5051 97.1504 54.471 97.1791 54.4409C97.8587 54.9981 98.8237 60.4892 99.347 65.3926L100.027 65.3217C100.027 65.2305 99.1126 56.3354 100.947 53.6034C100.996 53.5274 101.054 53.4581 101.121 53.3974C101.736 54.0323 101.929 59.78 101.753 64.8793L102.432 64.9131C102.616 61.894 103.245 56.9095 104.179 56.1328C104.631 56.8251 104.519 61.3672 104.159 65.3454L104.838 65.4467C104.838 65.3825 106.272 58.9121 107.856 57.2877C107.988 58.2671 107.213 62.1642 106.34 65.5345L106.996 65.7033C107.336 64.4842 108.488 61.1578 109.952 60.4318H109.99C110.187 61.124 108.902 64.8827 107.536 68.0943H107.546Z" fill="black"/>
<path d="M61.9555 73.4984C60.508 77.2131 60.6711 79.3677 63.2366 85.2032C63.3317 85.416 63.4269 85.6355 63.5288 85.8584C63.8074 86.4831 64.1133 87.1484 64.4463 87.861C65.4928 90.1033 66.3865 95.125 67.1443 101.437C67.168 101.67 67.1986 101.903 67.2258 102.139C67.987 108.691 68.6054 116.539 69.0879 124.09C69.1049 124.333 69.1185 124.573 69.1321 124.816C69.9782 138.206 70.4029 150.481 70.4913 152.643V152.98C64.3749 157.864 58.6425 159.991 53.6033 160.538C45.7233 161.396 39.4948 158.391 35.9337 156.01C34.7482 155.236 33.6369 154.355 32.6139 153.379C32.9299 144.008 34.8634 133.809 37.5478 123.843C37.6123 123.597 37.6803 123.35 37.7449 123.104C42.127 126.504 46.8966 129.379 51.9552 131.671L52.0062 131.698C52.0878 131.749 60.2192 136.835 63.4778 136.426C63.5713 136.419 63.6631 136.398 63.7497 136.362C63.4438 135.555 58.5745 132.985 54.1232 130.993L54.3678 130.354C54.429 130.381 60.7153 132.955 65.0171 133.809C63.8482 133.042 60.9157 131.54 57.8372 130.094C56.8178 129.648 56.111 129.287 56.0294 129.247L56.3285 128.642C56.956 128.928 57.5449 129.202 58.0954 129.463C60.0628 130.314 63.2638 131.489 65.4011 131.215C65.5182 131.208 65.6332 131.181 65.7409 131.134C65.6118 130.797 64.6569 130.162 63.2943 129.415C61.2931 128.625 59.3503 127.695 57.4804 126.633L57.7862 126.032C59.509 126.764 61.8332 127.811 63.6375 128.821C64.9458 129.307 66.1351 129.611 66.8486 129.497L66.954 129.473C66.6787 128.956 64.6094 127.71 62.241 126.488C60.2837 125.782 59.8624 125.366 59.791 125.218L59.2609 124.276L60.2192 124.725C60.9157 125.062 61.7279 125.441 62.5536 125.863C63.6171 126.241 65.1768 126.724 67.4671 127.308C67.7357 127.38 68.0079 127.437 68.2826 127.48C68.218 127.379 68.1127 127.234 67.9428 127.021C67.1477 126.008 65.5642 125.157 64.1812 124.397C63.6885 124.127 63.2264 123.874 62.822 123.627L61.5919 122.871C60.1886 122.003 58.7342 121.105 57.2459 120.372C56.8212 120.166 56.4032 119.97 55.9853 119.777C51.048 117.518 46.9126 114.766 43.6947 111.595C43.0627 110.973 42.4375 110.328 41.8428 109.656C41.9244 109.41 42.0093 109.16 42.0943 108.913C44.1331 102.939 46.3078 97.2728 48.384 92.1836C48.5029 91.8931 48.6184 91.6061 48.7238 91.3224C51.9149 90.1186 54.8625 88.3548 57.426 86.115C58.9993 84.7136 59.774 82.9676 59.6041 81.2082C59.407 79.182 58.0342 77.3077 55.6183 75.7306L55.9105 75.1126C56.8619 73.1067 57.6367 71.5329 58.1634 70.4726C57.4599 69.3313 56.9706 68.0727 56.7192 66.7578C62.9851 65.9372 63.7803 62.03 64.2186 59.8551C64.3545 59.1797 64.487 58.5482 64.7045 58.4131C64.7249 58.4131 64.7895 58.3625 64.9695 58.4131L65.255 58.4976C67.3847 59.1345 69.5721 59.562 71.7859 59.7741L72.1257 59.8011C72.7272 59.845 73.3082 59.8653 73.8689 59.8585C73.8638 60.8788 73.7625 61.8963 73.5665 62.8979C73.5087 63.1917 73.4441 63.4855 73.3694 63.7826C73.998 65.0051 74.5485 66.0149 74.5485 66.0149C74.5485 66.0149 72.1903 67.619 71.65 68.112C69.3462 72.1138 65.6254 74.4169 62.1798 73.5524C62.0982 73.5423 62.0269 73.522 61.9555 73.4984Z" fill="#E5D1B8"/>
<path d="M210.142 259.013H5.24304V259.688H210.142V259.013Z" fill="black"/>
<path d="M32.6207 152.497L30.0484 207.35L15.0972 244.836L8.98083 259.019H33.7862L20.8738 254.629C20.8738 254.629 22.4573 251.873 22.9126 250.577L46.6985 213.091L55.8731 162.098C57.9119 161.423 32.6207 152.497 32.6207 152.497Z" fill="url(#paint0_linear_237_5178)"/>
<path d="M126.891 259.694C125.816 259.694 124.765 259.377 123.871 258.784C122.977 258.19 122.28 257.346 121.868 256.359C121.457 255.371 121.349 254.285 121.559 253.237C121.769 252.189 122.286 251.226 123.047 250.47C123.807 249.715 124.776 249.2 125.83 248.992C126.885 248.783 127.978 248.89 128.972 249.299C129.965 249.708 130.814 250.401 131.412 251.289C132.009 252.178 132.328 253.222 132.328 254.291C132.328 255.724 131.755 257.098 130.736 258.112C129.716 259.125 128.333 259.694 126.891 259.694ZM126.891 249.563C125.95 249.563 125.03 249.84 124.248 250.36C123.466 250.879 122.856 251.618 122.496 252.482C122.136 253.346 122.042 254.296 122.225 255.213C122.409 256.13 122.862 256.973 123.527 257.634C124.193 258.295 125.04 258.746 125.963 258.928C126.886 259.11 127.842 259.017 128.712 258.659C129.581 258.301 130.324 257.695 130.847 256.918C131.369 256.14 131.648 255.226 131.648 254.291C131.648 253.037 131.147 251.835 130.255 250.948C129.363 250.061 128.153 249.563 126.891 249.563Z" fill="#F9B572"/>
<path d="M178.88 259.694C177.805 259.694 176.754 259.377 175.86 258.784C174.966 258.19 174.269 257.346 173.857 256.359C173.446 255.371 173.338 254.285 173.548 253.237C173.758 252.189 174.276 251.226 175.036 250.47C175.796 249.715 176.765 249.2 177.82 248.992C178.874 248.783 179.968 248.89 180.961 249.299C181.954 249.708 182.804 250.401 183.401 251.289C183.998 252.178 184.317 253.222 184.317 254.291C184.317 255.724 183.744 257.098 182.725 258.112C181.705 259.125 180.322 259.694 178.88 259.694ZM178.88 249.563C177.94 249.563 177.02 249.84 176.237 250.36C175.455 250.879 174.845 251.618 174.485 252.482C174.125 253.346 174.031 254.296 174.215 255.213C174.398 256.13 174.851 256.973 175.517 257.634C176.182 258.295 177.03 258.746 177.952 258.928C178.875 259.11 179.832 259.017 180.701 258.659C181.57 258.301 182.313 257.695 182.836 256.918C183.359 256.14 183.638 255.226 183.638 254.291C183.638 253.037 183.136 251.835 182.244 250.948C181.352 250.061 180.142 249.563 178.88 249.563Z" fill="#F9B572"/>
<path d="M92.5035 139.134L77.2363 126.771L77.216 126.704L64.4735 122.587L64.2628 123.229L76.6655 127.227L79.8766 139.134L79.9309 139.334L80.0159 139.584L81.3003 143.275C81.4193 143.612 81.5416 143.967 81.6707 144.338C85.4085 155.02 93.8321 179.085 100.835 198.26V198.287C103.69 206.094 106.306 213.088 108.267 218.039C109.983 222.375 111.203 225.131 111.641 225.509C111.74 225.59 111.892 225.718 112.783 225.847C114.108 226.049 117.078 226.266 123.969 226.387L111.369 249.564H192.133V248.888H112.511L124.744 226.407C126.072 226.428 127.54 226.445 129.161 226.458L132.219 226.475C133.608 226.475 135.095 226.475 136.681 226.475C142.43 226.475 149.518 226.434 158.255 226.336C180.433 226.09 202.605 225.587 202.829 225.587H203.057L236.463 139.134H92.5035ZM209.921 139.81L207.811 152.957H184.976L184.297 139.81H209.921ZM147.565 180.753H127.972L123.965 166.151H144.313C145.274 170.521 146.362 175.394 147.565 180.753ZM145.006 166.151H164.629L166.869 180.74H148.254C147.133 175.681 146.018 170.747 145.006 166.151ZM147.724 181.415C147.836 181.915 147.949 182.428 148.064 182.931C149.179 187.899 150.3 192.877 151.367 197.591H132.6L128.159 181.415H147.724ZM148.404 181.415H166.97L169.454 197.591H152.053C150.837 192.225 149.6 186.751 148.407 181.429L148.404 181.415ZM167.66 181.415H185.772L186.614 197.591H170.144L167.66 181.415ZM167.555 180.74L165.319 166.151H184.98L185.741 180.74H167.555ZM165.227 165.577L163.375 153.511H184.321L184.949 165.577H165.227ZM164.548 165.577H144.877C143.901 161.16 143.008 157.077 142.236 153.511H162.689L164.548 165.577ZM144.19 165.577H123.802L120.489 153.511H141.557C142.284 156.938 143.164 160.97 144.184 165.59L144.19 165.577ZM123.123 165.577H104.128L99.9417 153.511H119.789L123.123 165.577ZM123.279 166.151L127.289 180.74H109.388L104.318 166.151H123.279ZM127.472 181.415L131.917 197.591H115.267L109.653 181.415H127.472ZM132.1 198.266L135.92 212.288H120.33L115.471 198.28L132.1 198.266ZM132.807 198.266H151.533C152.692 203.379 153.779 208.165 154.714 212.274H136.633L132.807 198.266ZM152.227 198.266H169.56L171.711 212.274H155.4C154.367 207.813 153.294 203.089 152.206 198.28L152.227 198.266ZM170.27 198.266H186.652L187.379 212.274H172.4L170.27 198.266ZM186.478 181.415H203.234L200.634 197.591H187.297L186.478 181.415ZM186.441 180.74L185.663 166.151H205.687L203.343 180.74H186.441ZM185.653 165.577L185.024 153.511H207.719L205.779 165.577H185.653ZM183.61 139.81L184.29 152.957H163.29L161.272 139.81H183.61ZM160.582 139.81L162.601 152.957H142.111C140.626 146.044 139.63 141.188 139.464 139.81H160.582ZM138.801 139.81C138.91 140.907 139.481 143.964 141.424 152.957H120.336L116.724 139.81H138.801ZM116.018 139.81L119.63 152.957H99.7412L95.1777 139.81H116.018ZM77.549 127.899L91.4263 139.134H80.6785L77.549 127.899ZM81.9324 143.008C81.6469 142.186 81.3638 141.375 81.0829 140.573L80.8178 139.81H94.4641L99.0276 152.957H85.4051C84.2124 149.546 83.0503 146.226 81.9324 143.008ZM85.6056 153.524H99.2213L103.411 165.59H89.8599C88.4225 161.531 86.9886 157.479 85.6056 153.524ZM95.2627 180.784C93.5637 175.995 91.8001 171.075 90.0604 166.164H103.608L108.671 180.753H95.2627V180.784ZM95.4937 181.429H108.906L114.512 197.605H101.331C99.4932 192.563 97.5223 187.088 95.4835 181.429H95.4937ZM101.6 198.28H114.771L119.609 212.288H106.778C105.26 208.286 103.496 203.525 101.6 198.28ZM112.372 225.094C112.277 225.069 112.187 225.032 112.103 224.982C111.886 224.797 111.424 223.844 110.744 222.254C109.847 220.163 108.59 216.969 107.064 212.963H119.847L124.265 225.722C117.886 225.621 113.54 225.425 112.355 225.094H112.372ZM132.977 225.796C132.202 225.796 131.444 225.796 130.704 225.796C128.665 225.796 126.772 225.769 125.012 225.742L120.595 212.973H136.144L139.671 225.806C137.313 225.806 135.08 225.806 132.96 225.796H132.977ZM140.361 225.796L136.837 212.963H154.846C156.372 219.66 157.466 224.445 157.752 225.675C151.642 225.742 145.75 225.786 140.337 225.799L140.361 225.796ZM158.462 225.664C157.582 221.825 156.6 217.529 155.56 212.96H171.833L173.753 225.455C168.595 225.543 163.443 225.61 158.445 225.668L158.462 225.664ZM174.432 225.445L172.513 212.95H187.426L188.062 225.198C183.59 225.296 179.01 225.377 174.422 225.448L174.432 225.445ZM187.345 198.277H200.536L198.286 212.285H188.062L187.345 198.277ZM188.745 225.195L188.106 212.96H198.178L196.234 225.046L188.745 225.195ZM202.595 224.908L196.927 225.033L198.867 212.96H207.213L202.595 224.908ZM207.471 212.285H198.976L201.226 198.277H212.884L207.471 212.285ZM213.146 197.601H201.324L203.924 181.425H219.388L213.146 197.601ZM219.656 180.75H204.032L206.374 166.161H225.287L219.656 180.75ZM225.518 165.587H206.489L208.429 153.521H230.176L225.518 165.587ZM208.507 152.947L210.607 139.81H235.481L230.384 152.957L208.507 152.947Z" fill="#F9B572"/>
<path d="M135.043 224.621L118.733 231.713L114.016 228.7L70.4811 153.365L32.7634 151.677C42.1351 168.687 80.9367 209.762 80.9367 209.762L106.442 235.357L106.568 235.245L114.315 243.536L135.043 224.621Z" fill="url(#paint1_linear_237_5178)"/>
<path d="M68.4797 126.592C67.5997 125.484 65.9584 124.586 64.5109 123.792C64.0284 123.525 63.573 123.276 63.1755 123.036L61.9522 122.283C60.5318 121.405 59.0673 120.5 57.5348 119.753C57.1067 119.544 56.6819 119.345 56.2572 119.149C51.4048 116.923 47.3341 114.218 44.1739 111.105C43.4603 110.402 42.7502 109.669 42.0944 108.903C39.8993 106.357 38.2682 103.469 38.9648 100.345C39.3046 98.819 39.7735 96.7286 41.255 95.7797C43.3447 94.3848 45.587 93.2304 47.9389 92.3385L48.384 92.173C52.1762 90.7479 55.2819 88.9311 57.8644 86.6279C59.6042 85.0778 60.4571 83.1327 60.2668 81.1537C60.1105 79.5631 59.2168 77.26 55.897 75.1223C55.7294 75.0143 55.5561 74.9017 55.3771 74.7846C52.1592 72.8766 43.0662 75.6728 35.5192 80.8903C26.2189 87.3236 21.7268 95.5129 23.1947 103.358C24.8597 112.26 31.6489 119.264 37.5139 123.813C37.9284 124.13 38.3362 124.441 38.7371 124.734C42.7624 127.689 47.0906 130.212 51.6495 132.262C52.2102 132.6 59.4649 137.101 63.0803 137.101C63.2359 137.101 63.3913 137.092 63.5459 137.074C64.0759 137.007 64.3682 136.801 64.4191 136.47C64.4701 136.139 64.5619 135.5 60.2498 133.204C61.7742 133.711 63.3261 134.131 64.8983 134.464C65.4963 134.582 66.0434 134.656 66.1793 134.244C66.2575 134.008 66.3832 133.623 62.625 131.664C63.5652 131.883 64.5346 131.95 65.4963 131.863C66.0672 131.789 66.3832 131.576 66.4308 131.232C66.4783 130.887 66.1589 130.513 65.6084 130.07C66.055 130.166 66.5148 130.184 66.9676 130.124C67.4841 130.033 67.6234 129.77 67.6472 129.57C67.7152 129.054 66.7705 128.277 65.4521 127.456C66.0128 127.612 66.6278 127.774 67.3074 127.946C68.2996 128.199 68.7788 128.257 69.0064 127.916C69.2341 127.575 68.9215 127.149 68.4797 126.592ZM67.4603 127.294C65.1701 126.71 63.6104 126.227 62.5469 125.849C61.7211 125.427 60.909 125.035 60.2124 124.711L59.261 124.275L59.7775 125.194C59.8624 125.342 60.2702 125.758 62.2274 126.464C64.606 127.686 66.6652 128.932 66.9404 129.449L66.8351 129.472C66.1215 129.601 64.9322 129.297 63.624 128.797C61.8197 127.784 59.4955 126.74 57.7727 126.008L57.4669 126.609C59.3368 127.671 61.2796 128.6 63.2808 129.391C64.64 130.138 65.5982 130.776 65.7274 131.11C65.6196 131.157 65.5047 131.184 65.3876 131.191C63.2502 131.465 60.0493 130.29 58.0819 129.439C57.5314 129.178 56.9424 128.904 56.3149 128.618L56.0159 129.223C56.0975 129.263 56.7975 129.624 57.8236 130.07C60.9022 131.532 63.8347 133.035 65.0036 133.785C60.7051 132.947 54.4189 130.374 54.3679 130.354L54.0995 130.975C58.5508 132.958 63.4201 135.538 63.726 136.345C63.6394 136.38 63.5476 136.402 63.4541 136.409C60.1954 136.821 52.0641 131.735 51.9825 131.681L51.9315 131.654C46.8716 129.361 42.1008 126.485 37.7177 123.083C31.5708 118.274 25.4272 111.564 23.8709 103.246C23.0996 99.1331 23.9695 95.0064 26.4568 90.9809C28.5636 87.5735 31.8324 84.2775 35.9134 81.4577C42.1963 77.1114 48.7918 74.8758 52.6043 74.8758C53.4442 74.8294 54.2816 75.0017 55.0339 75.3756C55.2344 75.4938 55.4247 75.6154 55.6116 75.7369C58.0275 77.314 59.4003 79.1984 59.5974 81.2145C59.7673 82.974 58.9926 84.7199 57.4193 86.1214C54.8623 88.3512 51.9243 90.1079 48.7442 91.3085C48.4044 91.4436 48.0646 91.5719 47.7248 91.7002C45.3264 92.6096 43.0396 93.7867 40.9085 95.209C39.2095 96.3065 38.6692 98.6468 38.3226 100.193C37.5342 103.719 39.4201 106.887 41.8633 109.649C42.4579 110.325 43.0832 110.966 43.7152 111.588C46.9331 114.759 51.0684 117.511 56.0057 119.77C56.4237 119.963 56.8416 120.159 57.2664 120.365C58.7547 121.097 60.209 121.996 61.6124 122.864L62.8425 123.62C63.2502 123.867 63.7124 124.12 64.2017 124.39C65.5915 125.15 67.1681 126.014 67.9632 127.014C68.1297 127.227 68.2351 127.372 68.303 127.473C68.0214 127.429 67.7423 127.369 67.4671 127.294H67.4603Z" fill="black"/>
<path d="M82.8804 43.0644C80.2605 41.9601 76.363 43.088 73.6752 44.2227C77.0395 40.0931 79.1158 35.0762 79.6489 29.7892C80.6683 18.3546 72.9277 10.8069 66.2608 6.46401C61.9318 3.65769 55.812 0.915526 51.2179 3.78939C47.4461 6.15332 45.5976 12.107 46.5117 18.9624C46.874 21.7284 47.6914 24.4163 48.9311 26.9188L49.0602 27.1754C50.4194 29.7791 52.3528 31.9945 54.8877 33.0852C55.1808 33.213 55.4802 33.3257 55.7848 33.4229L56.0091 33.4939C58.0241 34.1389 59.1182 34.9291 59.2542 35.8578C59.5668 37.9414 55.1766 40.8963 50.9053 43.7533C46.3554 46.7927 41.6526 49.9603 40.9356 52.9558C40.3613 55.3501 41.6526 57.6431 43.654 59.6491L44.2894 60.2468C48.4723 64.0392 54.9625 66.6834 55.3872 66.8557L55.462 66.8827H55.5368C55.94 66.8557 56.324 66.8185 56.6887 66.7713C62.9546 65.9506 63.7497 62.0434 64.188 59.8686C64.3239 59.1932 64.4565 58.5617 64.6739 58.4266C64.6943 58.4266 64.7589 58.3759 64.939 58.4266L65.2244 58.511C67.3645 59.1453 69.5623 59.5683 71.7859 59.774L72.1257 59.801C72.7272 59.8449 73.3082 59.8652 73.8689 59.8584C76.6213 59.8416 78.9285 59.2438 80.7702 58.0686C83.3187 56.4443 84.892 53.7359 85.4391 50.0144C85.9861 46.2929 85.1162 44.0066 82.8804 43.0644ZM77.3247 19.8945H77.4742C78.7743 22.9981 79.2889 26.3712 78.9727 29.7183C78.3644 36.5332 74.7218 42.2472 72.4655 44.5773C70.3962 44.7158 68.7277 43.7938 68.5103 42.8888C68.2486 41.8115 68.9044 40.3425 70.9534 39.4915C72.4961 38.8566 73.8247 36.9756 74.6912 34.2064C76.2203 29.3739 75.7344 24.7169 74.4975 22.7886C73.964 21.9579 73.8179 21.3061 74.0694 20.8603C74.2665 20.5024 74.9461 19.908 77.2635 19.908L77.3247 19.8945ZM47.1777 18.8814C46.2976 12.2894 48.0238 6.59571 51.5747 4.36011C52.8114 3.60342 54.2411 3.21653 55.6931 3.24569C56.75 3.25727 57.801 3.40599 58.8192 3.68808C57.6809 4.18113 52.6688 6.50453 51.782 9.40541C51.6429 9.83973 51.6077 10.3003 51.679 10.7505C51.7504 11.2007 51.9264 11.6282 52.1931 11.999C54.3101 15.1565 49.2709 19.8405 47.6126 21.2757C47.4325 20.4855 47.283 19.6818 47.1777 18.8713V18.8814ZM47.7961 22.0119C49.2335 20.83 55.3431 15.4908 52.7572 11.6376C52.5445 11.3501 52.4028 11.0169 52.3438 10.6649C52.2848 10.3128 52.31 9.95195 52.4174 9.61141C53.1412 7.24748 57.7998 4.77211 59.5532 3.91434C61.5882 4.5996 63.5289 5.53558 65.3298 6.7004C63.4507 7.53116 57.8066 10.2463 57.392 12.9446C57.2663 13.755 57.5925 14.4879 58.3605 15.1227C60.1274 16.585 59.2338 19.7425 57.5619 22.2145C55.5232 25.2539 52.1761 27.6482 49.5359 26.652C48.787 25.1696 48.2037 23.6103 47.7961 22.0018V22.0119ZM56.1552 32.8185L55.9717 32.761C53.7358 32.0856 51.7106 30.3161 50.117 27.6685C50.0796 27.6043 50.0388 27.5368 50.0048 27.4726C50.2691 27.5227 50.5377 27.5476 50.8068 27.5469C53.4368 27.5469 56.3013 25.318 58.1396 22.586C60.858 18.5336 60.2056 15.7475 58.8192 14.5892C58.2382 14.1096 58.0003 13.5997 58.0886 13.0324C58.4284 10.7697 63.7905 8.07148 66.0399 7.12591C68.2224 8.53763 70.2496 10.1732 72.0884 12.0057C71.351 12.0767 68.2011 12.4887 67.202 14.4338C66.6414 15.5179 66.8622 16.8552 67.8273 18.4052C69.5263 21.1069 67.022 25.6287 63.9875 28.7052C61.1638 31.5554 58.1362 33.0954 56.1552 32.8218V32.8185ZM51.2791 44.3004C55.3567 41.5515 58.9925 39.1234 59.774 36.9249C61.3847 36.5872 68.4899 34.9291 69.4447 30.8091C69.6214 30.0527 69.985 29.6407 70.4641 29.6407C71.0893 29.6407 71.9083 30.3363 72.1631 31.4474C72.5913 33.4196 71.018 35.4357 67.953 36.8507C60.0391 40.481 56.5086 42.9901 55.761 45.5161C55.6161 46.0164 55.5854 46.5426 55.6712 47.0561C55.757 47.5697 55.9572 48.0577 56.2571 48.4846C56.6819 49.16 56.6615 49.9907 56.2028 50.8485C55.4008 52.3547 53.2159 53.9216 50.5927 54.0027C48.7136 54.0601 46.0258 53.388 43.7967 49.8692C45.703 48.0354 48.5233 46.1443 51.2791 44.2937V44.3004ZM41.5914 53.0909C41.8021 52.2094 42.4239 51.2909 43.3176 50.3554C45.1389 53.1483 47.633 54.6713 50.3888 54.6713H50.6301C53.2159 54.5903 55.761 53.1449 56.8178 51.1592C57.3988 50.0684 57.409 48.9844 56.845 48.1198C56.5974 47.7744 56.4315 47.3778 56.3597 46.9597C56.288 46.5416 56.3121 46.1128 56.4304 45.7053C57.2799 42.8348 62.8866 39.9271 68.2554 37.4653C69.5195 36.8844 73.5869 34.7265 72.8461 31.3157C72.5573 29.9885 71.5481 28.9821 70.5015 28.9754C70.1039 28.9754 69.1661 29.1442 68.8025 30.6639C67.9938 34.1423 61.8876 35.7767 59.9473 36.209C59.9587 36.058 59.953 35.9062 59.9303 35.7565C59.7944 34.8447 59.0673 34.068 57.7149 33.4398C59.9202 32.9873 62.472 31.238 64.4701 29.1983C67.7933 25.8212 70.2976 21.0934 68.4015 18.054C67.5622 16.7032 67.3618 15.609 67.8001 14.7513C68.6054 13.1843 71.7655 12.725 72.6626 12.6069C74.523 14.5552 76.0548 16.7891 77.1989 19.2225C75.2111 19.2225 73.964 19.6682 73.4917 20.5226C73.1145 21.198 73.2641 22.0828 73.9437 23.1432C75.2757 25.2235 75.3266 29.9885 74.0626 33.9937C73.2437 36.5704 72.051 38.2994 70.702 38.86C68.2792 39.8731 67.5283 41.6798 67.8579 43.0374C68.1875 44.395 69.5569 45.2662 71.3952 45.2662H71.5107C71.2103 45.4152 70.9286 45.5989 70.6714 45.8133L70.5015 46.043L70.6612 46.2523C70.8481 46.4887 71.1267 46.3705 71.4223 46.2523C71.7845 46.073 72.1169 45.8395 72.4078 45.56C73.5224 45.0091 74.675 44.5374 75.8567 44.1484C76.5578 43.9165 77.2713 43.7237 77.9941 43.571C77.4028 44.9488 74.7048 50.7708 70.8583 51.6759C70.2017 51.833 69.5169 51.833 68.8603 51.6759C67.5433 51.3645 66.2825 50.8531 65.1225 50.1596C64.3885 49.7307 63.7633 49.2883 63.223 48.9067C62.2036 48.1908 61.541 47.718 60.9769 47.978C60.576 48.1604 60.3653 48.6534 60.2769 49.6091C60.1104 51.4429 58.2789 54.6173 55.2207 56.89C53.7218 58.022 52.01 58.8442 50.1863 59.3082C48.3626 59.7722 46.4638 59.8686 44.602 59.5917C42.4749 57.6228 41.0443 55.3839 41.5914 53.0909ZM80.3964 57.5114C78.6601 58.6157 76.4718 59.1797 73.8485 59.1999C73.2539 59.1999 72.6354 59.1999 71.9966 59.129H71.9592C69.7454 58.9193 67.5585 58.4883 65.4317 57.8424L65.1395 57.7579C65.0084 57.7125 64.8691 57.6954 64.7308 57.7076C64.5926 57.7199 64.4585 57.7612 64.3375 57.8288C63.8652 58.1159 63.7293 58.7879 63.539 59.7166C63.0769 61.986 62.3939 65.3529 56.5901 66.0891L56.0702 66.1465C56.1756 65.9101 56.3183 65.5994 56.4916 65.2313C57.8916 62.2899 61.3099 55.7486 64.5074 54.8098C64.8375 54.6999 65.1891 54.6692 65.5335 54.7203C65.8778 54.7713 66.205 54.9027 66.4885 55.1036C68.2656 56.3058 70.7835 56.8596 73.5359 56.7043C74.4934 56.6517 75.4447 56.5195 76.38 56.3092C79.744 55.5561 82.6391 53.8878 84.3857 51.74C83.6823 54.3336 82.3435 56.272 80.3964 57.5114ZM84.7595 49.9232C84.7595 50.0009 84.7357 50.0819 84.7221 50.1596C83.1522 52.5573 79.812 54.8469 76.2271 55.6473C75.2865 55.8585 74.3292 55.9885 73.366 56.0356C70.8141 56.1606 68.4967 55.6439 66.8656 54.543C66.4991 54.286 66.0773 54.1174 65.6337 54.0506C65.1902 53.9838 64.7371 54.0205 64.3104 54.158C61.2148 55.0698 58.0954 60.4663 56.4338 63.7826C55.9173 64.8159 55.5435 65.6467 55.3533 66.079C54.0824 65.5386 49.1417 63.3368 45.4991 60.3684C45.9136 60.4021 46.3214 60.4157 46.7156 60.4157C49.9325 60.4094 53.0594 59.36 55.6217 57.427C58.877 55.0124 60.7663 51.686 60.9531 49.6598C61.0381 48.7277 61.2216 48.596 61.2556 48.5825C61.4662 48.4846 62.1866 48.9979 62.8254 49.447C63.2332 49.7341 63.7089 50.0718 64.256 50.4129C65.6093 51.2925 67.103 51.9376 68.6734 52.3209C69.5612 52.53 70.4899 52.4927 71.3578 52.2128C72.9616 51.7096 74.5383 50.4196 76.013 48.39C77.126 46.8167 78.0884 45.1434 78.8877 43.392C80.3183 43.1927 81.7522 43.2366 82.8566 43.8074C84.6099 44.6989 85.225 46.7555 84.7595 49.9232Z" fill="black"/>
<defs>
<linearGradient id="paint0_linear_237_5178" x1="32.4854" y1="152.497" x2="32.4854" y2="259.019" gradientUnits="userSpaceOnUse">
<stop stop-color="#738961"/>
<stop offset="1" stop-color="#7FB04F"/>
</linearGradient>
<linearGradient id="paint1_linear_237_5178" x1="83.9032" y1="151.677" x2="83.9032" y2="243.536" gradientUnits="userSpaceOnUse">
<stop stop-color="#738961"/>
<stop offset="1" stop-color="#7FB04F"/>
</linearGradient>
</defs>
</svg>
