<svg width="254" height="265" viewBox="0 0 254 265" fill="none" xmlns="http://www.w3.org/2000/svg">
<path d="M44.2996 176.444C42.6593 174.316 40.6638 173.126 38.365 172.902C37.198 172.766 36.0155 172.918 34.921 173.346C33.8265 173.773 32.8535 174.463 32.0873 175.354C27.2502 180.69 25.8335 194.501 27.8569 216.387C28.7987 226.559 30.3033 236.2 31.305 242.023C30.5511 240.106 29.6753 238.238 28.683 236.432C24.5683 228.996 19.2205 224.714 13.2101 224.051C11.0151 223.808 9.43065 224.387 8.50475 225.78C3.92314 232.666 17.8396 257.803 18.4342 258.87L18.546 259.073L45.8321 259.169L45.888 258.834C45.9119 258.67 48.5899 242.059 49.7313 223.728C51.2718 199.042 49.4359 183.13 44.2996 176.444ZM45.1696 258.37L37.515 258.342L39.9095 187.651L39.1113 187.623L36.7168 258.338L27.9686 258.306L16.2791 233.241L15.5568 233.58L27.0946 258.294L19.0169 258.266C17.6799 255.826 5.04859 232.386 9.17124 226.192C9.92952 225.054 11.2186 224.594 13.1223 224.81C27.0427 226.36 32.2788 247.459 32.3347 247.671L33.1329 247.499C33.0172 246.908 21.5113 188.246 32.6859 175.881C33.3618 175.08 34.2268 174.46 35.2024 174.078C36.178 173.696 37.2335 173.564 38.2732 173.693C40.3445 173.888 42.1564 174.979 43.657 176.924C55.2388 191.969 45.9558 253.246 45.1536 258.37H45.1696Z" fill="black"/>
<path d="M235.466 175.246C233.826 173.117 231.83 171.927 229.531 171.704C228.364 171.567 227.182 171.72 226.087 172.147C224.993 172.575 224.02 173.265 223.254 174.156C218.417 179.492 217 193.302 219.023 215.189C219.965 225.361 221.47 235.002 222.471 240.825C221.717 238.907 220.842 237.04 219.849 235.234C215.735 227.797 210.387 223.516 204.376 222.853C202.181 222.605 200.597 223.188 199.675 224.582C195.09 231.492 209.006 256.629 209.601 257.695L209.712 257.899L236.999 257.995L237.054 257.659C237.078 257.496 239.756 240.885 240.898 222.553C242.434 197.843 240.602 181.932 235.466 175.246ZM236.336 257.172L229.982 257.148L232.377 186.269L231.579 186.245L229.184 257.144L218.808 257.108L207.09 232.043L206.364 232.378L217.906 257.104L210.187 257.076C208.85 254.636 196.219 231.196 200.342 225.002C201.1 223.863 202.393 223.404 204.293 223.62C218.213 225.169 223.449 246.269 223.505 246.481L224.303 246.309C224.188 245.718 212.682 187.056 223.856 174.691C224.532 173.89 225.397 173.271 226.373 172.889C227.349 172.506 228.404 172.374 229.444 172.502C231.515 172.698 233.327 173.788 234.827 175.733C246.405 190.77 237.122 252.048 236.32 257.172H236.336Z" fill="black"/>
<path d="M115.41 69.3891C114.575 67.8895 113.496 66.5398 112.218 65.3952C111.723 64.9491 111.205 64.5305 110.665 64.1412C105.365 60.311 97.8662 58.9891 90.4709 58.1504C78.2312 56.7144 65.8846 59.7448 55.6978 66.6852C53.9426 67.8937 52.2571 69.2004 50.6492 70.5992C47.5363 72.5043 42.3999 75.8751 42.6673 77.205C42.7033 77.3888 42.8469 77.7043 43.3937 77.7921C44.2438 77.9279 45.2615 77.6603 46.2592 77.229L46.1195 77.3528C42.1286 81.0511 42.372 81.5783 42.5277 81.9258C42.6234 82.1295 42.8549 82.3531 43.4336 82.2573C44.8943 82.0176 47.1572 80.504 49.0209 79.0622C46.9656 81.6462 44.9103 84.5737 45.3014 85.4803C45.3591 85.6022 45.4509 85.7048 45.5656 85.7757C45.6803 85.8465 45.8131 85.8827 45.9479 85.8797C46.798 85.9036 48.1828 84.8892 49.5837 83.5752C45.6885 89.2904 46.1714 89.9654 46.4348 90.3009C46.6982 90.6364 47.0813 90.6723 47.664 90.4526C49.2963 89.8416 51.1681 87.8806 52.8044 85.7838C50.1943 91.1915 50.7131 91.7746 50.9685 92.0582C51.0342 92.1328 51.1153 92.1923 51.2063 92.2323C51.2973 92.2723 51.396 92.2919 51.4953 92.2898C51.6719 92.2841 51.8455 92.2434 52.0062 92.17C55.0513 90.856 60.1916 81.1669 60.7863 80.0686C62.2749 77.217 70.3446 75.8711 72.783 75.5236C83.6185 73.994 93.7914 78.4391 102.591 83.6192C103.525 84.1743 104.443 84.7294 105.345 85.2926C105.397 85.017 105.461 84.7414 105.533 84.4698C104.667 83.9307 103.781 83.3955 102.883 82.8723C93.987 77.6404 83.6943 73.1792 72.6713 74.7368C69.4306 75.1961 61.7281 76.594 60.0878 79.6812V79.7012C58.1842 83.3316 53.9857 90.4606 51.7068 91.4391C51.6634 91.4597 51.6179 91.4757 51.5712 91.487C51.3077 90.4846 54.1653 84.5497 57.0467 79.4775L56.3523 79.0781C56.3004 79.174 51.0324 88.3439 47.4006 89.7058C47.3023 89.7465 47.1989 89.7733 47.0933 89.7857C46.9416 88.7552 50.7171 83.1 54.3927 78.3313L53.7702 77.8361C51.5153 80.6118 47.4804 84.9691 46.0517 85.0769C46.0996 84.1024 49.3282 79.809 52.4172 76.2425L51.8505 75.6834C51.7907 75.7353 45.9798 80.9832 43.3498 81.4585C43.9005 80.4241 47.3407 77.213 50.4776 74.5731L49.9668 73.958C48.8174 74.9086 45.4131 77.3049 43.5134 77.0014H43.4655C43.7609 76.1626 47.5802 73.4069 51.0962 71.2742L51.1481 71.2342C52.7428 69.8467 54.4136 68.5494 56.1528 67.3482C66.1837 60.5207 78.3389 57.5428 90.3871 58.9611C94.3781 59.4124 98.4329 60.0115 102.113 61.0739C105.174 61.9605 107.991 63.1786 110.334 64.908C110.803 65.2508 111.255 65.6174 111.687 66.0063C112.903 67.0955 113.928 68.3806 114.72 69.8084C115.514 71.207 116.125 72.7025 116.536 74.2576C116.803 74.2576 117.079 74.2576 117.358 74.2576C116.935 72.5531 116.279 70.915 115.41 69.3891Z" fill="black"/>
<path d="M140.058 31.3958C137.161 22.6093 127.906 14.5976 120.211 10.0526C120.139 10.0087 113.083 5.87504 110.034 7.04125C109.727 7.14907 109.449 7.32838 109.225 7.56445C109 7.80051 108.834 8.08658 108.741 8.39916C108.234 9.9967 109.14 11.9617 109.839 13.5512C109.99 13.8867 110.134 14.2022 110.238 14.4898C111.076 16.5586 111.926 19.0587 111.862 21.8944C111.83 23.1684 111.543 24.8259 110.342 25.4888C109.759 25.76 109.119 25.8847 108.478 25.8523C107.871 25.8523 107.225 25.8523 106.558 25.8203C102.799 25.7325 98.1214 25.6206 95.5472 28.1048C94.2781 29.3269 93.6196 31.0882 93.5917 33.3368C93.5597 35.9447 94.8169 38.1813 95.8785 39.6031C101.298 46.84 109.671 51.1853 115.55 53.5217C117.418 54.2605 119.03 54.7957 120.219 55.1592C120.467 55.235 120.714 55.3069 120.962 55.3708C122.436 55.7632 123.954 55.9645 125.479 55.9699C128.66 55.9885 131.769 55.0217 134.379 53.2022C136.383 51.7944 138.037 49.9441 139.212 47.7945C140.414 45.6239 141.12 43.2137 141.28 40.7374C141.393 37.5773 140.98 34.4204 140.058 31.3958ZM140.481 40.6815C140.349 43.0255 139.693 45.3099 138.56 47.3658C137.427 49.4217 135.847 51.1966 133.936 52.5592C130.312 55.0833 125.835 55.8102 121.253 54.628C120.994 54.5601 120.73 54.4882 120.455 54.4083C118.898 53.937 117.374 53.4059 115.897 52.8108C107.624 49.5718 100.712 44.7312 96.529 39.1398C95.5432 37.8179 94.3699 35.7451 94.4018 33.3607C94.4298 31.3079 94.9885 29.7663 96.1139 28.6959C97.9817 26.8947 101.111 26.5991 104.236 26.5991C105.014 26.5991 105.796 26.5991 106.554 26.6351C107.225 26.6351 107.875 26.667 108.49 26.667C109.269 26.7012 110.044 26.5406 110.745 26.1997C112.273 25.3411 112.636 23.4041 112.668 21.9183C112.736 18.9349 111.87 16.327 110.988 14.1942C110.868 13.8987 110.721 13.5712 110.565 13.2277C109.907 11.762 109.089 9.93679 109.504 8.64677C109.559 8.45116 109.661 8.27163 109.8 8.12301C109.938 7.9744 110.111 7.86097 110.302 7.79209C112.529 6.9414 118.036 9.70914 119.788 10.7435C127.371 15.2167 136.454 23.0566 139.284 31.6474C140.181 34.5716 140.585 37.6245 140.481 40.6815Z" fill="black"/>
<path d="M134.894 42.0191C136.031 36.0682 134.363 30.5208 130.903 28.0605C128.995 34.6504 123.62 49.8909 115.282 47.3628C115.598 48.632 116.108 49.8446 116.795 50.9573C116.529 51.4738 116.227 52.0889 115.889 52.8025C115.781 53.0301 115.666 53.2657 115.546 53.5134C114.301 56.0934 112.601 59.7038 110.645 64.105C110.533 64.3527 110.421 64.6003 110.31 64.8559C108.047 69.968 105.465 76.0826 102.863 82.8282C102.763 83.0798 102.667 83.3275 102.571 83.5791C101.629 86.0393 100.684 88.5794 99.7537 91.1674L105.141 90.3686C105.074 89.8252 105.034 89.2786 105.022 88.7311C105.022 88.5953 105.022 88.4556 105.022 88.3317C105.021 87.2923 105.124 86.2554 105.329 85.2365C105.381 84.9609 105.445 84.6854 105.517 84.4138C105.588 84.1422 105.652 83.9106 105.732 83.6629C107.285 78.7904 109.787 75.7871 113.163 74.7327C114.256 74.4159 115.386 74.2414 116.524 74.2135C116.791 74.2135 117.066 74.2135 117.346 74.2135C119.74 74.2694 122.247 74.9563 123.284 76.9013C123.66 77.6871 123.917 78.5243 124.047 79.3855V79.4534C124.569 82.0414 125.164 84.7013 125.898 87.3532L127.295 87.1496C126.417 79.8768 125.384 74.1017 124.178 71.4977C120.084 62.6633 119.389 59.8276 120.946 55.3465C121.029 55.0989 121.121 54.8513 121.221 54.5917L121.253 54.5118C121.337 54.5398 121.425 54.5637 121.508 54.5837C125.711 55.6461 130.26 52.6707 132.934 47.5985C132.934 47.6903 132.958 47.7343 132.966 47.7103C133.046 47.4467 136.498 45.0823 136.498 45.0823C136.498 45.0823 135.74 43.6605 134.894 42.0191ZM133.014 37.7057C132.997 37.6471 132.997 37.5846 133.014 37.526C133.122 37.3582 133.102 37.4661 133.03 37.7057H133.014Z" fill="#E5D1B8"/>
<path d="M111.048 157.517C113.958 165.753 111.719 175.154 111.719 175.154L109.807 176.875L58.3677 223.204L16.327 172.215L3.95508 176.64L21.4714 155.429L51.0842 190.506L86.4839 145.68L86.7872 145.648H86.9389C86.9389 145.695 86.9389 145.739 86.9389 145.787L92.2229 150.927L92.3666 151.063L105.078 149.206L118.759 147.209L131.187 145.376C131.25 147.029 131.282 148.096 131.294 148.427C131.294 148.499 131.294 148.535 131.294 148.535C123.931 154.45 117.067 156.958 111.048 157.517Z" fill="url(#paint0_linear_235_5167)"/>
<path d="M206.927 231.644L182.582 254.009L173.487 244.204L173.339 244.336L143.379 214.071C143.379 214.071 125.923 195.463 110.007 176.528C102.579 167.678 95.4835 158.756 90.6585 151.615C89.2736 149.566 88.0763 147.665 87.1105 145.952L86.8032 145.4H87.1305L92.4145 150.54L92.5582 150.676L105.269 148.819L118.95 146.822L131.099 147.373L131.498 148.06L182.231 236.468L187.77 240.031L206.927 231.644Z" fill="url(#paint1_linear_235_5167)"/>
<path d="M78.6656 120.706C78.5401 119.802 78.0726 118.981 77.3596 118.411C76.6466 117.842 75.7425 117.569 74.8338 117.647C73.9251 117.725 73.0811 118.15 72.476 118.833C71.8708 119.516 71.5507 120.405 71.5816 121.317C71.5907 121.612 71.6363 121.904 71.7173 122.188C71.9294 122.931 72.3772 123.586 72.9934 124.053C73.6096 124.52 74.3607 124.773 75.1336 124.776C75.3086 124.774 75.4832 124.761 75.6564 124.736C76.5895 124.598 77.4298 124.095 77.9937 123.338C78.5576 122.582 78.7992 121.632 78.6656 120.698V120.706ZM77.3565 122.871C77.0302 123.31 76.581 123.642 76.0659 123.825C75.5508 124.008 74.993 124.034 74.4631 123.9C73.9331 123.766 73.455 123.477 73.0891 123.07C72.7232 122.664 72.4861 122.158 72.4078 121.617C72.3793 121.424 72.3726 121.228 72.3878 121.034C72.436 120.354 72.7335 119.716 73.223 119.242C73.7126 118.769 74.3598 118.493 75.0403 118.467C75.7207 118.442 76.3865 118.669 76.9098 119.105C77.4331 119.541 77.777 120.156 77.8754 120.83C77.8942 120.962 77.9035 121.096 77.9033 121.229C77.9027 121.821 77.7109 122.397 77.3565 122.871Z" fill="black"/>
<path d="M250.228 258.37H9.57422V259.169H250.228V258.37Z" fill="black"/>
<path d="M205.781 75.7317L127.311 87.1861L125.914 87.3898C125.18 84.7378 124.585 82.0779 124.063 79.4899V79.422C123.933 78.5608 123.676 77.7237 123.3 76.9379C122.263 74.9929 119.764 74.3059 117.362 74.25C117.082 74.25 116.807 74.25 116.54 74.25C115.402 74.2779 114.272 74.4524 113.179 74.7692C109.803 75.8236 107.301 78.827 105.748 83.6995C105.668 83.9471 105.596 84.1987 105.533 84.4503C105.469 84.7019 105.397 84.9974 105.345 85.273C105.14 86.2919 105.037 87.3288 105.038 88.3683C105.038 88.504 105.038 88.6438 105.038 88.7676C105.05 89.3152 105.09 89.8617 105.157 90.4051L99.7696 91.2039L84.173 93.4804L84.0054 93.5083L65.675 118.618C63.476 118.162 43.7686 114.272 38.8997 120.079C37.5867 121.645 37.455 123.762 38.5006 126.366C39.8056 129.585 42.3199 131.426 45.9796 131.833C46.5098 131.89 47.0428 131.918 47.576 131.917C53.5624 131.917 61.0495 128.594 66.2736 125.659L86.7951 145.628H86.9467C86.9467 145.676 86.9467 145.72 86.9467 145.768L92.2307 150.908L92.3744 151.044L105.086 149.187L118.767 147.19L131.186 145.376L214.17 133.259L205.781 75.7317ZM106.067 85.7163C106.115 85.4368 106.171 85.1572 106.243 84.8856C106.315 84.614 106.407 84.2466 106.506 83.9311C107.975 79.3262 110.298 76.4945 113.415 75.524C114.485 75.2176 115.59 75.0524 116.703 75.0328H117.05H117.513C119.617 75.1047 121.74 75.6958 122.594 77.2933C122.929 78.0116 123.158 78.7742 123.276 79.5578V79.6257C123.795 82.2018 124.39 84.8457 125.116 87.4896L125.332 88.2644C125.545 89.002 125.768 89.7395 126.002 90.477C126.082 90.7326 126.162 90.9882 126.25 91.2438C126.848 93.053 127.523 94.8383 128.293 96.5996C130.711 102.083 134.08 107.147 139.001 111.061C141.571 113.102 147.904 117.747 151.265 116.792C153.208 116.241 156.162 115.506 158.924 115.027L159.722 114.895C162.24 114.496 164.511 114.352 165.544 114.8C165.589 114.818 165.631 114.839 165.672 114.863C165.401 115.307 163.697 116.026 161.354 116.816L160.256 117.172C160.005 117.252 159.75 117.336 159.486 117.412C157.527 118.019 155.32 118.63 153.2 119.149L153.392 119.924C155.478 119.434 157.588 119.054 159.714 118.785L160.512 118.694C163.118 118.422 165.784 118.398 167.253 119.113C167.351 119.155 167.442 119.212 167.524 119.281C167.125 119.8 164.291 120.447 160.739 121.01L159.941 121.134C158.097 121.413 156.102 121.665 154.178 121.861L154.25 122.659C155.898 122.536 158.053 122.452 160.001 122.496C160.276 122.496 160.548 122.496 160.799 122.52C162.711 122.604 164.295 122.827 164.79 123.283C164.415 123.606 162.847 123.922 160.775 124.185L159.977 124.281C158.149 124.485 156.026 124.648 154.015 124.736V125.535C155.967 125.702 157.909 125.968 159.833 126.334C160.097 126.386 160.36 126.438 160.632 126.498C162.068 126.821 163.365 127.232 164.068 127.748C163.525 127.895 162.16 127.907 160.436 127.832L159.638 127.792C157.946 127.692 155.998 127.52 154.174 127.308L154.078 128.107C155.86 128.33 157.599 128.816 159.239 129.549C159.483 129.665 159.72 129.798 159.945 129.948C160.255 130.143 160.525 130.393 160.743 130.687L160.771 130.731C160.423 130.823 160.059 130.846 159.702 130.799C159.462 130.799 159.187 130.759 158.904 130.723C156.366 130.344 153.853 129.811 151.381 129.126H151.317C149.215 128.92 147.126 128.598 145.059 128.163C139.809 127.044 134.778 125.068 130.169 122.316C127.581 120.782 125.135 119.019 122.861 117.048C122.758 116.96 122.658 116.872 122.554 116.777C119.919 114.461 117.527 111.88 115.418 109.076C112.988 105.853 110.629 102.51 108.885 99.0917C108.042 97.4905 107.343 95.8171 106.798 94.0914C106.714 93.8318 106.638 93.5722 106.566 93.3166C106.365 92.5794 106.205 91.8313 106.087 91.0761C106.042 90.8098 106.006 90.5436 105.98 90.2773C105.92 89.7621 105.884 89.2509 105.872 88.7357C105.836 87.7305 105.902 86.7243 106.067 85.7323V85.7163ZM147.885 97.1108C149.633 98.4927 151.812 99.2139 154.039 99.1477C154.728 99.1469 155.416 99.0962 156.098 98.9959C162.36 98.1013 164.706 94.3191 166.426 91.5554C167.951 89.1031 168.645 88.1526 170.601 89.3547C173.419 91.0921 177.386 91.2279 180.742 89.7062C182.195 89.0321 183.469 88.0244 184.46 86.7648C185.451 85.5052 186.131 84.0294 186.445 82.4574L194.874 81.2273C194.347 83.2002 190.967 95.1698 186.054 98.0933C185.59 98.3953 185.068 98.5974 184.522 98.6867C183.976 98.7761 183.417 98.7508 182.881 98.6125C176.536 96.9431 158.014 102.974 155.743 107.455C155.525 107.817 155.451 108.248 155.536 108.663C155.621 109.077 155.859 109.444 156.202 109.691C157.16 110.49 158.046 112.132 158.728 114.268C155.016 114.919 151.341 115.954 151.073 116.03C147.98 116.908 141.455 111.972 139.527 110.438C138.981 110.003 138.454 109.556 137.931 109.088C139.184 108.621 142.134 107.255 143.315 104.444C144.197 102.347 143.894 99.9145 142.421 97.2067C139.791 92.3861 138.729 90.3492 138.298 89.4865L143.702 88.6878C143.834 89.8819 144.532 94.411 147.885 97.1268V97.1108ZM144.5 88.5879L185.575 82.5971C185.064 85.4328 183.236 87.7013 180.411 88.9873C177.306 90.4051 173.626 90.2853 171.016 88.6838C168.31 87.0143 167.121 88.9274 165.748 91.144C164.112 93.7719 161.877 97.3704 155.986 98.2131C152.893 98.6564 150.339 98.0813 148.403 96.5037C145.27 93.9876 144.616 89.6143 144.5 88.6039V88.5879ZM202.341 126.206C202.299 125.587 202.122 124.986 201.823 124.443C201.523 123.9 201.109 123.429 200.609 123.063C200.343 122.875 200.129 122.623 199.985 122.331C199.841 122.039 199.773 121.715 199.787 121.389C199.911 118.69 204.76 115.155 205.909 114.352L208.224 130.204L200.082 131.402C200.709 130.671 202.449 128.502 202.341 126.206ZM198.993 121.353C198.971 121.805 199.062 122.255 199.258 122.662C199.454 123.069 199.748 123.421 200.114 123.686C200.525 123.983 200.866 124.367 201.113 124.81C201.361 125.253 201.509 125.744 201.547 126.25C201.659 128.247 199.667 130.755 198.989 131.55L191.737 132.612C191.737 131.166 191.526 126.541 188.896 125.787C187.698 125.443 186.709 123.49 186.74 121.521C186.76 120.323 187.203 117.491 190.879 116.573C196.446 115.179 202.624 106.792 204.428 104.192L205.769 113.378C204.831 114.013 199.12 118.114 198.973 121.357L198.993 121.353ZM190.668 115.822C187.742 116.553 185.97 118.69 185.922 121.533C185.882 123.93 187.084 126.13 188.66 126.577C190.592 127.129 190.939 130.991 190.915 132.752L173.502 135.296C176.739 133.846 177.932 131.63 178.339 129.868C179.138 126.374 177.457 120.511 171.862 115.89C170.409 114.692 169.831 113.653 170.138 112.799C170.793 110.973 176.276 109.008 186.772 109.008C191.985 109.008 195.916 103.709 198.298 99.2635C199.989 96.0978 201.31 92.7474 202.233 89.2789L204.229 103.038C203.89 103.549 196.71 114.292 190.668 115.822ZM186.772 108.234C179.469 108.234 170.529 109.364 169.388 112.551C168.957 113.749 169.615 115.099 171.351 116.545C175.211 119.74 178.583 125.271 177.561 129.725C176.967 132.301 174.089 134.661 170.657 135.747L153.416 138.263C156.549 136.886 158.361 134.294 159.402 131.626C159.586 131.626 159.762 131.626 159.925 131.626C160.695 131.626 161.246 131.506 161.45 131.226C161.542 131.086 161.585 130.918 161.572 130.751C161.559 130.583 161.491 130.424 161.378 130.3C161.052 129.852 160.636 129.478 160.157 129.201C160.201 129.026 160.241 128.854 160.28 128.682C164.639 128.894 164.834 128.411 164.966 128.079C165.05 127.871 165.05 127.548 164.567 127.192C163.769 126.585 162.296 126.114 160.699 125.759C160.723 125.531 160.743 125.299 160.755 125.072C163.198 124.764 165.309 124.301 165.6 123.61C165.652 123.484 165.665 123.346 165.639 123.212C165.613 123.079 165.548 122.956 165.453 122.859C164.886 122.212 163.198 121.917 161.286 121.801C168.107 120.702 168.25 119.9 168.326 119.464C168.402 119.029 168.151 118.737 167.596 118.466C166.023 117.703 163.318 117.691 160.668 117.947C166.387 116.122 166.45 115.343 166.482 114.959C166.502 114.716 166.411 114.372 165.852 114.133C164.615 113.601 162.1 113.781 159.466 114.2C158.724 111.844 157.726 110.015 156.673 109.14C156.569 109.072 156.48 108.984 156.411 108.88C156.343 108.776 156.297 108.659 156.275 108.537C156.254 108.414 156.258 108.289 156.287 108.168C156.316 108.047 156.37 107.933 156.445 107.834C158.393 104.012 176.236 97.7019 182.686 99.4033C183.324 99.5662 183.988 99.5963 184.638 99.4919C185.288 99.3875 185.91 99.1507 186.465 98.7962C191.717 95.669 195.189 83.1962 195.732 81.1194L200.92 80.3606L202.038 88.0328C201.279 91.1879 195.477 108.202 186.776 108.202L186.772 108.234ZM118.044 129.122C116.58 127.268 116.049 125.447 116.512 123.706C117.31 120.591 120.946 118.47 122.394 117.715C124.57 119.597 126.901 121.292 129.363 122.779C124.829 123.043 124.15 124.277 124.055 124.668C123.851 125.487 124.569 126.322 126.313 127.304C127.651 128.021 129.048 128.622 130.488 129.102C132.483 129.78 134.607 130.372 136.598 130.923C140.358 131.957 144.241 133.028 144.863 134.25C144.909 134.334 144.936 134.428 144.94 134.524C144.945 134.62 144.928 134.716 144.891 134.805C143.922 137.401 137.344 140.109 135.584 140.796L131.047 141.459L122.47 142.713C122.738 140.532 122.773 135.124 118.044 129.122ZM145.642 135.112C145.717 134.92 145.751 134.713 145.739 134.506C145.727 134.299 145.671 134.097 145.574 133.914C144.776 132.376 141.272 131.406 136.814 130.176C134.726 129.601 132.479 128.978 130.428 128.259C129.138 127.824 127.887 127.28 126.689 126.633C125.196 125.791 124.741 125.18 124.813 124.888C124.996 124.165 127.694 123.65 130.185 123.57C130.185 123.478 130.185 123.386 130.185 123.29C130.264 123.338 130.344 123.386 130.428 123.43C134.927 126.009 139.8 127.872 144.871 128.95C146.956 129.393 149.064 129.718 151.185 129.924C153.616 130.614 156.091 131.139 158.592 131.498C157.563 134.002 154.753 137.181 151.664 138.467L138.709 140.356C141.391 139.098 144.871 137.129 145.642 135.1V135.112ZM159.442 128.77C159.299 128.698 159.151 128.634 159.003 128.57H159.187H159.478L159.442 128.77ZM141.723 97.618C143.075 100.098 143.363 102.299 142.585 104.16C141.387 107.016 137.987 108.266 137.277 108.501C133.018 104.396 130.129 99.3154 128.05 93.9037C127.698 92.9931 127.371 92.0772 127.068 91.156L127.762 91.0561L137.472 89.6383C137.915 90.6168 139.077 92.7495 141.723 97.61V97.618ZM159.965 125.132C159.965 125.275 159.945 125.415 159.933 125.555C159.422 125.451 158.912 125.363 158.413 125.283C158.927 125.232 159.45 125.18 159.965 125.124V125.132ZM105.96 94.2312C107.556 99.5151 111.06 104.679 114.74 109.564C116.821 112.316 119.167 114.857 121.744 117.152C120.048 118.039 116.556 120.223 115.733 123.49C115.223 125.487 115.789 127.544 117.41 129.601C122.095 135.532 121.883 140.951 121.624 142.832L109.751 144.578C112.692 137.712 107.408 129.769 102.444 124.305C101.985 123.798 101.797 123.358 101.877 122.967C102.068 121.985 103.892 121.122 105.656 120.287C107.859 119.245 110.134 118.17 110.737 116.425C110.86 116.03 110.902 115.613 110.858 115.201C110.815 114.789 110.688 114.39 110.485 114.029C107.907 108.873 105.133 96.0285 104.794 94.4149L105.96 94.2312ZM71.5816 121.322C70.7681 121.985 69.9122 122.595 69.0194 123.147L67.9139 122.124L75.1894 112.695V112.731C76.1748 112.85 77.1661 112.912 78.1587 112.918C81.3514 112.918 83.5105 112.12 84.5681 110.594C86.1645 108.242 84.6719 104.919 84.169 103.968C83.7699 103.225 83.4227 102.666 83.1992 102.347L86.6873 97.8257C87.7369 98.4567 91.9434 101.296 92.6139 106.652C93.013 109.795 89.5488 114.173 86.4997 118.035C83.9615 121.23 81.958 123.782 82.1735 125.431C82.1974 125.642 82.2647 125.845 82.3712 126.028C82.4777 126.21 82.621 126.369 82.7921 126.494C85.4142 128.459 82.3931 133.978 81.8303 134.945L69.618 123.678C70.5 123.107 71.2144 122.596 71.7412 122.196C71.6517 121.912 71.5981 121.619 71.5816 121.322ZM75.7361 111.984L82.5647 103.138C82.6764 103.241 82.8001 103.341 82.8001 103.345C83.1354 103.637 85.2665 107.211 84.181 109.651C83.291 111.652 80.3776 112.455 75.7361 111.984ZM83.2471 125.855C83.1618 125.794 83.0903 125.716 83.0373 125.626C82.9843 125.536 82.9511 125.435 82.9398 125.331C82.7682 124.013 84.8714 121.337 87.0984 118.542C90.2472 114.548 93.8151 110.039 93.3801 106.56C92.6737 100.913 88.4354 97.9615 87.1543 97.1907L87.3378 96.955L95.5193 95.7569C95.8705 96.1363 96.7685 97.0229 97.4828 97.8177C99.2508 99.7867 101.661 102.958 101.729 105.65C101.756 106.144 101.677 106.638 101.497 107.099C101.316 107.56 101.039 107.977 100.684 108.322C99.8854 109.12 98.8318 110.091 97.7183 111.117C95.7667 112.91 93.5917 114.907 91.8476 116.844C89.8521 119.077 88.4114 121.238 88.5591 122.891C88.5968 123.292 88.7304 123.677 88.9485 124.015C89.1667 124.353 89.4629 124.633 89.8122 124.832C89.8619 124.863 89.9099 124.896 89.9559 124.932C94.1344 127.768 97.6026 138.459 94.2502 145.516C94.1783 145.66 94.1105 145.804 94.0346 145.944L93.9429 146.163L93.859 146.083L93.1606 145.44L87.4376 140.145L82.405 135.5C82.6684 135.072 86.6514 128.411 83.2471 125.855ZM94.7051 146.287L94.8249 146.135C94.9167 145.964 95.0005 145.784 95.0803 145.604C96.537 142.325 96.7724 138.016 95.7148 133.623C94.6732 129.285 92.57 125.667 90.2273 124.181C90.1916 124.161 90.1581 124.137 90.1275 124.109C89.9041 123.976 89.7154 123.792 89.5766 123.572C89.4379 123.352 89.3532 123.102 89.3293 122.843C89.2295 121.717 90.0796 120.219 91.3887 118.606C93.2285 116.325 95.9782 113.813 98.2331 111.732C99.3506 110.706 100.404 109.735 101.222 108.937C101.652 108.513 101.988 108.005 102.208 107.443C102.428 106.882 102.527 106.28 102.499 105.678C102.424 102.554 99.606 99.0039 97.7462 96.995C97.1995 96.4039 96.7365 95.9446 96.4492 95.669L98.289 95.3974L103.996 94.5667C103.996 94.5907 103.996 94.6186 103.996 94.6466C104.04 94.8463 104.096 95.1179 104.168 95.4454C104.188 95.5412 104.212 95.6411 104.236 95.7489C104.259 95.8567 104.299 96.0404 104.335 96.1962C104.439 96.6755 104.567 97.2306 104.706 97.8457C104.754 98.0494 104.806 98.2451 104.854 98.4807L104.914 98.7363C104.946 98.8721 104.982 99.0119 105.014 99.1357C105.062 99.3434 105.114 99.555 105.165 99.7667C105.513 101.216 105.92 102.838 106.363 104.487C106.399 104.623 106.435 104.759 106.474 104.887C106.71 105.742 106.953 106.6 107.205 107.447C107.261 107.643 107.321 107.846 107.376 108.026C107.432 108.206 107.528 108.517 107.604 108.757C107.656 108.925 107.708 109.088 107.764 109.252C107.819 109.416 107.871 109.592 107.927 109.759C108.083 110.231 108.238 110.694 108.398 111.137C108.466 111.325 108.53 111.505 108.598 111.684C108.665 111.864 108.749 112.084 108.825 112.279C109.013 112.763 109.2 113.218 109.388 113.637C109.46 113.801 109.536 113.961 109.607 114.117L109.739 114.384C109.895 114.653 109.994 114.952 110.03 115.261C110.065 115.57 110.037 115.884 109.947 116.181C109.452 117.607 107.237 118.654 105.281 119.58C103.25 120.543 101.33 121.453 101.055 122.827C100.927 123.478 101.182 124.161 101.817 124.856C106.65 130.18 111.794 138.215 108.905 144.71L98.5285 146.223L98.1533 146.279L94.5615 146.802L94.3659 146.623L94.7051 146.287ZM46.4146 131.086C42.8906 130.787 40.4801 129.09 39.2549 126.082C38.313 123.774 38.4008 121.933 39.5103 120.615C43.8325 115.459 61.8596 118.706 65.1561 119.357L62.9212 122.416L65.7149 125.124C60.2632 128.151 52.3013 131.59 46.4107 131.086H46.4146ZM63.9748 122.3L84.4524 94.2552L99.4663 92.0626L105.261 91.2159C105.386 91.9713 105.553 92.7193 105.76 93.4564L98.6282 94.4988L87.0824 96.1842L86.9228 96.2082L66.8323 122.212L68.321 123.586C67.7436 123.945 67.1144 124.32 66.4332 124.708L63.9748 122.3ZM131.158 144.578L114.54 147.002H114.52L104.104 148.528L92.6418 150.201L88.132 145.808L87.8487 145.536L87.0146 144.737L67.004 125.267C67.6864 124.868 68.321 124.493 68.9036 124.129L87.3378 141.143L91.9394 145.376L92.6179 146.004L94.3739 147.625L100.404 146.746L102.448 146.447L121.804 143.619L122.319 143.543L131.067 142.265L135.393 141.634L135.792 141.578L209.126 130.883L201.607 79.4779L137.859 88.7676L137.245 88.8555L127.666 90.2534L126.808 90.3772C126.569 89.6423 126.349 88.9034 126.138 88.1646L127.411 87.9809L205.099 76.6343L213.264 132.596L131.158 144.578Z" fill="#F9B572"/>
<defs>
<linearGradient id="paint0_linear_235_5167" x1="67.6247" y1="145.376" x2="67.6247" y2="223.204" gradientUnits="userSpaceOnUse">
<stop stop-color="#738961"/>
<stop offset="1" stop-color="#7FB04F"/>
</linearGradient>
<linearGradient id="paint1_linear_235_5167" x1="146.865" y1="145.4" x2="146.865" y2="254.009" gradientUnits="userSpaceOnUse">
<stop stop-color="#738961"/>
<stop offset="1" stop-color="#7FB04F"/>
</linearGradient>
</defs>
</svg>
