<svg width="16" height="16" viewBox="0 0 16 16" fill="none" xmlns="http://www.w3.org/2000/svg">
<path d="M6.88682 11.0619H2.68634" stroke="url(#paint0_linear_2865_5275)" stroke-width="1.5" stroke-linecap="round" stroke-linejoin="round"/>
<path d="M8.76031 4.60022H12.9608" stroke="url(#paint1_linear_2865_5275)" stroke-width="1.5" stroke-linecap="round" stroke-linejoin="round"/>
<path fill-rule="evenodd" clip-rule="evenodd" d="M5.81755 4.56417C5.81755 3.7004 5.11211 3 4.24212 3C3.37213 3 2.66669 3.7004 2.66669 4.56417C2.66669 5.42794 3.37213 6.12834 4.24212 6.12834C5.11211 6.12834 5.81755 5.42794 5.81755 4.56417Z" stroke="url(#paint2_linear_2865_5275)" stroke-width="1.5" stroke-linecap="round" stroke-linejoin="round"/>
<path fill-rule="evenodd" clip-rule="evenodd" d="M13.3334 11.0358C13.3334 10.1721 12.6285 9.47168 11.7585 9.47168C10.8879 9.47168 10.1825 10.1721 10.1825 11.0358C10.1825 11.8996 10.8879 12.6 11.7585 12.6C12.6285 12.6 13.3334 11.8996 13.3334 11.0358Z" stroke="url(#paint3_linear_2865_5275)" stroke-width="1.5" stroke-linecap="round" stroke-linejoin="round"/>
<defs>
<linearGradient id="paint0_linear_2865_5275" x1="4.78658" y1="11.0619" x2="4.78658" y2="12.0619" gradientUnits="userSpaceOnUse">
<stop stop-color="#738961"/>
<stop offset="1" stop-color="#7FB04F"/>
</linearGradient>
<linearGradient id="paint1_linear_2865_5275" x1="10.8606" y1="4.60022" x2="10.8606" y2="5.60022" gradientUnits="userSpaceOnUse">
<stop stop-color="#738961"/>
<stop offset="1" stop-color="#7FB04F"/>
</linearGradient>
<linearGradient id="paint2_linear_2865_5275" x1="4.24212" y1="3" x2="4.24212" y2="6.12834" gradientUnits="userSpaceOnUse">
<stop stop-color="#738961"/>
<stop offset="1" stop-color="#7FB04F"/>
</linearGradient>
<linearGradient id="paint3_linear_2865_5275" x1="11.7579" y1="9.47168" x2="11.7579" y2="12.6" gradientUnits="userSpaceOnUse">
<stop stop-color="#738961"/>
<stop offset="1" stop-color="#7FB04F"/>
</linearGradient>
</defs>
</svg>
