<svg width="56" height="56" viewBox="0 0 56 56" fill="none" xmlns="http://www.w3.org/2000/svg">
<path d="M13.9998 8.40002C11.772 8.40002 9.63541 9.28502 8.06011 10.8603C6.4848 12.4356 5.5998 14.5722 5.5998 16.8V28.7196C6.46346 28.0064 7.40235 27.3896 8.39981 26.88V16.8C8.39981 15.3148 8.9898 13.8904 10.04 12.8402C11.0902 11.79 12.5146 11.2 13.9998 11.2H27.9998C29.485 11.2 30.9094 11.79 31.9596 12.8402C33.0098 13.8904 33.5998 15.3148 33.5998 16.8V33.6C33.5998 34.6102 33.3266 35.6017 32.809 36.4692C32.2914 37.3368 31.5488 38.0482 30.6598 38.528C30.7933 39.5236 30.8308 40.5297 30.7718 41.5324C32.4168 40.9574 33.8423 39.8849 34.8507 38.4636C35.859 37.0424 36.4004 35.3427 36.3998 33.6V32.7012L44.9034 38.5728C45.4288 38.9354 46.0433 39.1474 46.6804 39.1859C47.3176 39.2243 47.9532 39.0878 48.5183 38.7911C49.0835 38.4944 49.5568 38.0488 49.8869 37.5025C50.2171 36.9562 50.3915 36.33 50.3914 35.6916V14.7056C50.391 14.0675 50.2162 13.4417 49.8858 12.8958C49.5555 12.3499 49.0822 11.9047 48.5171 11.6083C47.952 11.3119 47.3167 11.1756 46.6797 11.2142C46.0428 11.2528 45.4286 11.4648 44.9034 11.8272L36.3998 17.696V16.8C36.3998 14.5722 35.5148 12.4356 33.9395 10.8603C32.3642 9.28502 30.2276 8.40002 27.9998 8.40002H13.9998ZM36.3998 21.1008L46.4938 14.1288C46.5989 14.0563 46.7219 14.0139 46.8494 14.0062C46.9768 13.9985 47.104 14.0259 47.217 14.0853C47.3301 14.1447 47.4247 14.2339 47.4907 14.3433C47.5567 14.4526 47.5915 14.5779 47.5914 14.7056V35.6916C47.5915 35.8193 47.5567 35.9447 47.4907 36.054C47.4247 36.1633 47.3301 36.2525 47.217 36.312C47.104 36.3714 46.9768 36.3987 46.8494 36.391C46.7219 36.3834 46.5989 36.341 46.4938 36.2684L36.3998 29.2964V21.1008ZM27.9998 40.6C27.9998 43.9418 26.6723 47.1466 24.3094 49.5096C21.9464 51.8725 18.7415 53.2 15.3998 53.2C12.0581 53.2 8.85322 51.8725 6.49026 49.5096C4.1273 47.1466 2.7998 43.9418 2.7998 40.6C2.7998 37.2583 4.1273 34.0534 6.49026 31.6905C8.85322 29.3275 12.0581 28 15.3998 28C18.7415 28 21.9464 29.3275 24.3094 31.6905C26.6723 34.0534 27.9998 37.2583 27.9998 40.6ZM16.7998 35C16.7998 34.6287 16.6523 34.2726 16.3898 34.0101C16.1272 33.7475 15.7711 33.6 15.3998 33.6C15.0285 33.6 14.6724 33.7475 14.4099 34.0101C14.1473 34.2726 13.9998 34.6287 13.9998 35V39.2H9.79981C9.4285 39.2 9.07241 39.3475 8.80986 39.6101C8.54731 39.8726 8.39981 40.2287 8.39981 40.6C8.39981 40.9713 8.54731 41.3274 8.80986 41.59C9.07241 41.8525 9.4285 42 9.79981 42H13.9998V46.2C13.9998 46.5713 14.1473 46.9274 14.4099 47.19C14.6724 47.4525 15.0285 47.6 15.3998 47.6C15.7711 47.6 16.1272 47.4525 16.3898 47.19C16.6523 46.9274 16.7998 46.5713 16.7998 46.2V42H20.9998C21.3711 42 21.7272 41.8525 21.9898 41.59C22.2523 41.3274 22.3998 40.9713 22.3998 40.6C22.3998 40.2287 22.2523 39.8726 21.9898 39.6101C21.7272 39.3475 21.3711 39.2 20.9998 39.2H16.7998V35Z" fill="url(#paint0_linear_3274_5615)"/>
<defs>
<linearGradient id="paint0_linear_3274_5615" x1="26.5956" y1="8.40002" x2="26.5956" y2="53.2" gradientUnits="userSpaceOnUse">
<stop stop-color="#738961"/>
<stop offset="1" stop-color="#7FB04F"/>
</linearGradient>
</defs>
</svg>
