<svg width="24" height="24" viewBox="0 0 24 24" fill="none" xmlns="http://www.w3.org/2000/svg">
<path d="M17.139 3.77834H6.86002C5.76989 3.77834 4.72439 4.21133 3.95346 4.98207C3.18253 5.75282 2.74929 6.79821 2.74902 7.88834V16.1113C2.74889 16.6512 2.85514 17.1859 3.06169 17.6847C3.26824 18.1835 3.57105 18.6368 3.95281 19.0186C4.33458 19.4003 4.78783 19.7031 5.28666 19.9097C5.78549 20.1162 6.32012 20.2225 6.86002 20.2223H17.14C17.6798 20.2225 18.2144 20.1163 18.7132 19.9098C19.2119 19.7033 19.6651 19.4006 20.0469 19.0189C20.4286 18.6372 20.7315 18.1841 20.9381 17.6854C21.1447 17.1867 21.251 16.6522 21.251 16.1123V7.88834C21.2512 7.34844 21.1449 6.81381 20.9384 6.31498C20.7318 5.81615 20.429 5.3629 20.0472 4.98114C19.6655 4.59937 19.2122 4.29656 18.7134 4.09001C18.2146 3.88346 17.6799 3.77721 17.14 3.77734M21.25 8.91734H2.75002M6.21802 16.1113H11.357" stroke="white" stroke-width="1.5" stroke-linecap="round" stroke-linejoin="round"/>
</svg>
