<svg width="56" height="56" viewBox="0 0 56 56" fill="none" xmlns="http://www.w3.org/2000/svg">
<path d="M42.898 43.526V37.1536H41.1013V44.261L45.8497 49.0093L47.1237 47.7353L42.898 43.526ZM27.9997 26.663L13.008 17.9993L11.7107 18.704V19.887L28.0207 29.337L44.333 19.887V18.6923L42.9913 17.9993L27.9997 26.663ZM9.33301 38.612V17.3786L27.9997 6.6593L46.6663 17.388V29.6193C45.915 29.3533 45.1528 29.1589 44.3797 29.036C43.605 28.9146 42.8117 28.854 41.9997 28.854C37.8852 28.854 34.3736 30.3084 31.4647 33.2173C28.5558 36.1262 27.1013 39.6371 27.1013 43.75C27.1013 44.5044 27.1542 45.2433 27.26 45.9666C27.3642 46.6931 27.5353 47.404 27.7733 48.0993L28.2237 49.4853L9.33301 38.612ZM41.9997 53.0833C39.4003 53.0833 37.1953 52.178 35.3847 50.3673C33.5725 48.5535 32.6663 46.3477 32.6663 43.75C32.6663 41.1522 33.5725 38.9472 35.3847 37.135C37.1969 35.3227 39.4019 34.4166 41.9997 34.4166C44.5975 34.4166 46.8032 35.3227 48.617 37.135C50.4308 38.9472 51.3361 41.1522 51.333 43.75C51.3299 46.3477 50.4246 48.5535 48.617 50.3673C46.8095 52.1811 44.6037 53.0864 41.9997 53.0833Z" fill="url(#paint0_linear_4051_6873)"/>
<defs>
<linearGradient id="paint0_linear_4051_6873" x1="30.333" y1="6.6593" x2="30.333" y2="53.0833" gradientUnits="userSpaceOnUse">
<stop stop-color="#738961"/>
<stop offset="1" stop-color="#7FB04F"/>
</linearGradient>
</defs>
</svg>
