<svg width="275" height="260" viewBox="0 0 275 260" fill="none" xmlns="http://www.w3.org/2000/svg">
<path fill-rule="evenodd" clip-rule="evenodd" d="M2.77486 187.615C3.84563 187.234 4.97242 186.727 5.84135 185.992C6.87335 185.12 7.29305 183.997 7.57489 182.815C7.93674 181.296 8.08132 179.679 8.52009 178.157C8.68256 177.592 8.9952 177.379 9.12936 177.284C9.46843 177.045 9.81118 176.981 10.1336 177.005C10.5158 177.032 11.0407 177.177 11.386 177.818C11.4352 177.909 11.4992 178.049 11.5423 178.24C11.5736 178.381 11.5939 178.819 11.6272 179C11.7103 179.446 11.7798 179.891 11.845 180.339C12.0623 181.831 12.1872 183.097 12.8733 184.467C13.8044 186.327 14.7374 187.464 16.0026 187.968C17.226 188.456 18.6887 188.364 20.5577 187.982C20.7355 187.939 20.9115 187.902 21.0856 187.872C21.9096 187.728 22.6973 188.269 22.8592 189.09C23.021 189.91 22.4974 190.709 21.6807 190.89C21.5103 190.927 21.3423 190.963 21.1761 190.995C18.6506 191.621 15.7269 193.852 14.0278 195.806C13.5041 196.408 12.7373 198.093 11.9552 199.167C11.378 199.96 10.7293 200.482 10.1847 200.667C9.8198 200.791 9.51212 200.772 9.25796 200.709C8.88873 200.618 8.58228 200.418 8.3472 200.1C8.2192 199.926 8.10041 199.693 8.04379 199.395C8.01672 199.251 8.01366 198.887 8.01427 198.722C7.85489 198.174 7.65981 197.639 7.51765 197.085C7.17858 195.765 6.51334 194.93 5.72318 193.826C4.9841 192.792 4.19028 192.143 3.02659 191.625C2.87521 191.588 1.65366 191.289 1.22228 191.117C0.592126 190.866 0.291802 190.444 0.182879 190.217C-0.00235185 189.832 -0.021412 189.495 0.0155111 189.215C0.0702804 188.8 0.256128 188.446 0.585974 188.16C0.790282 187.982 1.09552 187.809 1.50413 187.725C1.81982 187.659 2.65733 187.621 2.77486 187.615ZM9.94103 185.464C9.99765 185.59 10.058 185.717 10.122 185.845C11.4856 188.568 13.0106 190.089 14.8641 190.827L14.9263 190.851C13.6863 191.771 12.5638 192.8 11.7059 193.787C11.3527 194.193 10.885 195.037 10.3798 195.902C9.92073 194.41 9.16996 193.355 8.22596 192.035C7.50473 191.027 6.74904 190.269 5.82042 189.651C6.54104 189.282 7.22842 188.848 7.82719 188.343C8.82411 187.5 9.48318 186.524 9.94103 185.464Z" fill="#F9B572"/>
<circle cx="30" cy="6" r="6" fill="#F9B572"/>
<circle cx="269" cy="131" r="6" fill="#F9B572"/>
<path fill-rule="evenodd" clip-rule="evenodd" d="M137.5 45C149.926 45 160 34.9264 160 22.5C160 10.0736 149.926 0 137.5 0C125.074 0 115 10.0736 115 22.5C115 34.9264 125.074 45 137.5 45ZM137 35C143.627 35 149 29.6274 149 23C149 16.3726 143.627 11 137 11C130.373 11 125 16.3726 125 23C125 29.6274 130.373 35 137 35Z" fill="black"/>
<path d="M137.05 203.1C161.378 203.1 181.1 183.378 181.1 159.05C181.1 134.722 161.378 115 137.05 115C112.722 115 93 134.722 93 159.05C93 183.378 112.722 203.1 137.05 203.1Z" fill="#F9B572"/>
<path d="M206.767 126.299V92.5038C206.767 74.0703 199.444 56.3917 186.41 43.3572C173.375 30.3227 155.697 23 137.263 23C118.83 23 101.151 30.3227 88.1165 43.3572C75.082 56.3917 67.7593 74.0703 67.7593 92.5038V126.299C67.7601 134.063 65.5637 141.669 61.424 148.237C57.2843 154.806 51.3702 160.069 44.3655 163.418C42.7555 164.184 41.3965 165.393 40.4466 166.902C39.4967 168.411 38.9951 170.159 39 171.942V172.125C38.9988 172.769 39.1247 173.407 39.3703 174.003C39.6159 174.598 39.9765 175.139 40.4315 175.595C40.8865 176.051 41.4269 176.412 42.0218 176.659C42.6168 176.906 43.2545 177.033 43.8985 177.033H230.619C231.263 177.033 231.9 176.906 232.495 176.659C233.09 176.412 233.631 176.051 234.086 175.595C234.541 175.139 234.901 174.598 235.147 174.003C235.393 173.407 235.518 172.769 235.517 172.125V171.942C235.518 170.165 235.015 168.423 234.067 166.919C233.119 165.416 231.765 164.211 230.161 163.445C223.152 160.094 217.235 154.827 213.095 148.253C208.955 141.68 206.761 134.068 206.767 126.299Z" fill="url(#paint0_linear_1464_2883)"/>
<path fill-rule="evenodd" clip-rule="evenodd" d="M236 177H39V171H236V177Z" fill="black"/>
<path d="M193 87C208.464 87 221 74.464 221 59C221 43.536 208.464 31 193 31C177.536 31 165 43.536 165 59C165 74.464 177.536 87 193 87Z" fill="white"/>
<path d="M186 58.9892C186 56.5056 186.568 54.5532 187.703 53.1319C188.854 51.7106 190.62 51 193 51C195.364 51 197.122 51.7178 198.273 53.1534C199.424 54.5747 200 56.52 200 58.9892C200 61.4729 199.424 63.4325 198.273 64.8681C197.122 66.2894 195.364 67 193 67C190.62 67 188.854 66.2894 187.703 64.8681C186.568 63.4325 186 61.4729 186 58.9892ZM194.89 58.9892C194.89 57.8407 194.766 56.9794 194.517 56.4051C194.268 55.8165 193.762 55.5222 193 55.5222C192.222 55.5222 191.709 55.8165 191.46 56.4051C191.211 56.9794 191.087 57.8407 191.087 58.9892C191.087 60.1521 191.211 61.0278 191.46 61.6164C191.709 62.1907 192.222 62.4778 193 62.4778C193.762 62.4778 194.268 62.1907 194.517 61.6164C194.766 61.0278 194.89 60.1521 194.89 58.9892Z" fill="black"/>
<path fill-rule="evenodd" clip-rule="evenodd" d="M83.024 192.282C78.2809 196.608 73.5506 200.843 68.937 205.308C67.9409 206.265 67.9171 207.856 68.8763 208.868C69.8387 209.889 71.4243 209.935 72.4109 208.981C77.0024 204.545 81.6915 200.344 86.4029 196.05C87.4179 195.119 87.4831 193.525 86.5586 192.491C85.6215 191.451 84.039 191.352 83.024 192.282Z" fill="#E5D1B8"/>
<path fill-rule="evenodd" clip-rule="evenodd" d="M191.24 192.321C196.051 196.663 200.848 200.916 205.531 205.392C206.542 206.352 206.587 207.918 205.637 208.895C204.685 209.882 203.096 209.898 202.094 208.942C197.434 204.494 192.678 200.275 187.899 195.965C186.869 195.031 186.784 193.461 187.698 192.462C188.624 191.456 190.21 191.387 191.24 192.321Z" fill="#E5D1B8"/>
<path fill-rule="evenodd" clip-rule="evenodd" d="M134.051 220.281C134.032 226.721 133.957 233.09 134.127 239.53C134.158 240.915 135.308 242.02 136.692 242.007C138.085 241.997 139.183 240.863 139.147 239.487C138.983 233.083 139.056 226.767 139.076 220.372C139.076 218.991 137.953 217.853 136.576 217.827C135.186 217.805 134.051 218.899 134.051 220.281Z" fill="#E5D1B8"/>
<defs>
<linearGradient id="paint0_linear_1464_2883" x1="137.259" y1="23" x2="137.259" y2="177.033" gradientUnits="userSpaceOnUse">
<stop stop-color="#738961"/>
<stop offset="1" stop-color="#7FB04F"/>
</linearGradient>
</defs>
</svg>
