<svg width="24" height="24" viewBox="0 0 24 24" fill="none" xmlns="http://www.w3.org/2000/svg">
<path fill-rule="evenodd" clip-rule="evenodd" d="M12.0005 17.8476C17.6397 17.8476 20.2485 17.1242 20.5005 14.2205C20.5005 11.3188 18.6816 11.5054 18.6816 7.94511C18.6816 5.16414 16.0457 2 12.0005 2C7.95526 2 5.31934 5.16414 5.31934 7.94511C5.31934 11.5054 3.50049 11.3188 3.50049 14.2205C3.75344 17.1352 6.36226 17.8476 12.0005 17.8476Z" stroke="black" stroke-width="1.5" stroke-linecap="round" stroke-linejoin="round"/>
<path d="M14.3894 20.8572C13.0252 22.3719 10.8972 22.3899 9.52002 20.8572" stroke="black" stroke-width="1.5" stroke-linecap="round" stroke-linejoin="round"/>
<circle cx="18.5005" cy="4.5" r="3.5" fill="#F12253"/>
<path d="M19.3366 3.424H17.9326V4.336C17.994 4.25067 18.0846 4.18133 18.2046 4.128C18.3246 4.072 18.454 4.044 18.5926 4.044C18.814 4.044 18.994 4.09067 19.1326 4.184C19.2713 4.27467 19.37 4.39333 19.4286 4.54C19.49 4.684 19.5206 4.83733 19.5206 5C19.5206 5.192 19.4846 5.364 19.4126 5.516C19.3406 5.668 19.23 5.788 19.0806 5.876C18.934 5.964 18.7513 6.008 18.5326 6.008C18.2526 6.008 18.026 5.936 17.8526 5.792C17.6793 5.648 17.574 5.456 17.5366 5.216H17.8926C17.9273 5.368 18.0006 5.48667 18.1126 5.572C18.2246 5.65733 18.366 5.7 18.5366 5.7C18.7473 5.7 18.906 5.63733 19.0126 5.512C19.1193 5.384 19.1726 5.216 19.1726 5.008C19.1726 4.8 19.1193 4.64 19.0126 4.528C18.906 4.41333 18.7486 4.356 18.5406 4.356C18.3993 4.356 18.2753 4.39067 18.1686 4.46C18.0646 4.52667 17.9886 4.61867 17.9406 4.736H17.5966V3.104H19.3366V3.424Z" fill="white"/>
</svg>
