<svg width="56" height="56" viewBox="0 0 56 56" fill="none" xmlns="http://www.w3.org/2000/svg">
<path d="M30.9228 4.66663C31.5234 4.66663 31.9855 5.15663 31.9855 5.73996V13.2533C31.9855 17.5233 35.4739 21.0233 39.7016 21.0466C41.4574 21.0466 42.8436 21.07 43.9063 21.07L44.2999 21.0682C45.01 21.0628 45.9662 21.0466 46.7941 21.0466C47.3716 21.0466 47.8337 21.5133 47.8337 22.0966V40.8566C47.8337 46.6433 43.1901 51.3333 37.4607 51.3333H19.0713C13.0647 51.3333 8.16699 46.41 8.16699 40.3433V15.19C8.16699 9.40329 12.8337 4.66663 18.5861 4.66663H30.9228ZM33.3947 34.7666H20.8271C19.8799 34.7666 19.0944 35.5366 19.0944 36.4933C19.0944 37.45 19.8799 38.2433 20.8271 38.2433H33.3947C34.3419 38.2433 35.1274 37.45 35.1274 36.4933C35.1274 35.5366 34.3419 34.7666 33.3947 34.7666ZM28.6356 23.1H20.8271C19.8799 23.1 19.0944 23.8933 19.0944 24.85C19.0944 25.8066 19.8799 26.5766 20.8271 26.5766H28.6356C29.5828 26.5766 30.3683 25.8066 30.3683 24.85C30.3683 23.8933 29.5828 23.1 28.6356 23.1ZM35.3519 6.78063C35.3519 5.77496 36.5602 5.27563 37.251 6.00129C39.7483 8.62396 44.1123 13.209 46.5519 15.771C47.2265 16.478 46.7321 17.6516 45.7595 17.654C43.8605 17.661 41.6219 17.654 40.0117 17.6376C37.4566 17.6376 35.3519 15.512 35.3519 12.9313V6.78063Z" fill="url(#paint0_linear_2264_5270)"/>
<defs>
<linearGradient id="paint0_linear_2264_5270" x1="28.0003" y1="4.66663" x2="28.0003" y2="51.3333" gradientUnits="userSpaceOnUse">
<stop stop-color="#738961"/>
<stop offset="1" stop-color="#7FB04F"/>
</linearGradient>
</defs>
</svg>
