<svg width="240" height="265" viewBox="0 0 240 265" fill="none" xmlns="http://www.w3.org/2000/svg">
<path d="M182.535 99.7733C181.362 93.7199 181.792 87.8666 183.68 84.1517C188.209 75.2169 186.973 67.6633 179.271 57.2188C173.998 50.0748 176.451 44.6263 178.305 42.0973L182.733 41.5496L180.662 37.7394C188.147 36.5583 193.883 28.8094 193.883 19.5365C193.883 9.42534 187.06 1.2002 178.672 1.2002C170.284 1.2002 163.461 9.42534 163.461 19.5365C163.461 28.1379 168.348 35.4819 175.2 37.3918L172.626 42.7926L176.456 42.3164C174.592 45.4883 172.969 51.1083 178.088 58.0332C185.51 68.1015 186.674 75.0026 182.371 83.4897C177.914 92.2768 181.632 108.813 187.422 112.961L188.272 111.809C185.867 110.104 183.607 105.369 182.535 99.7733ZM177.281 36.3916L176.383 36.2059C169.734 34.8437 164.91 27.8331 164.91 19.5365C164.91 10.2112 171.086 2.629 178.672 2.629C186.258 2.629 192.435 10.2112 192.435 19.5365C192.435 28.5046 186.727 35.9201 179.445 36.4154L178.329 36.4916L180.435 40.3875L179.585 40.4923L177.532 40.7447L175.065 41.0495L177.281 36.3916Z" fill="#F9B572"/>
<path d="M117.315 136.699H71.7537C71.8309 136.456 71.9082 136.222 71.9903 135.984C72.0724 135.746 72.1641 135.508 72.2559 135.27C73.946 130.945 76.4909 128.735 77.1187 128.235L77.2635 128.126L100.983 122.596C101.231 122.3 101.503 122.023 101.795 121.768C101.911 121.668 102.027 121.577 102.138 121.491C102.425 121.275 102.734 121.088 103.06 120.934C103.123 120.896 103.185 120.872 103.248 120.839C103.311 120.806 114.838 128.197 117.011 135.27C117.064 135.437 117.112 135.608 117.151 135.775C117.218 136.028 117.266 136.286 117.296 136.546C117.305 136.599 117.31 136.646 117.315 136.699Z" fill="#738961"/>
<path d="M129.899 202.007C131.831 186.376 124.814 160.378 122.294 153.233C120.571 148.252 119.182 143.152 118.136 137.97C118.088 137.713 118.039 137.465 117.996 137.213C117.952 136.961 117.904 136.709 117.861 136.457H70.7492C70.7492 136.704 70.7203 136.961 70.7154 137.213C70.7106 137.465 70.7154 137.718 70.7154 137.97C70.7154 142.241 71.517 147.419 73.8108 153.601C75.9452 159.354 74.5303 164.886 70.9134 167.891C67.2965 170.896 61.55 183.689 68.3927 191.963C75.2353 200.238 74.1537 210.388 71.2901 216.781C68.4893 222.989 63.6555 231.677 73.5983 242.85C73.8977 243.183 74.2068 243.521 74.5303 243.859H90.0168L90.1038 243.622C90.1714 243.45 90.2679 243.188 90.3935 242.85C91.6249 239.583 95.5895 229.145 98.2985 223.185C100.428 218.496 103.485 208.623 104.422 196.547C104.586 196.804 104.755 197.051 104.905 197.308C106.295 199.355 107.802 201.216 109.13 203.026C113.959 209.581 111.486 211.159 108.966 224.708C107.073 234.868 111.921 240.294 114.456 242.356C114.911 242.735 115.395 243.072 115.905 243.365L128.943 242.86C129.016 242.709 129.083 242.538 129.151 242.356C131.29 236.184 128.557 212.874 129.899 202.007Z" fill="url(#paint0_linear_404_3706)"/>
<path d="M80.4072 244.159C76.2157 240.539 76.7324 227.27 80.2913 222.25C83.3336 217.964 85.5259 201.599 78.4804 195.579C76.1529 193.593 74.8925 191.179 74.738 188.435C74.4193 182.801 78.6639 177.005 82.2857 173.142C87.699 167.356 83.633 156.849 83.5895 156.745L84.9416 156.221C85.1251 156.697 89.3843 167.651 83.3481 174.114C80.5424 177.115 75.8776 182.954 76.1819 188.354C76.3407 190.768 77.5177 193.005 79.4269 194.522C87.1533 201.133 84.8161 218.388 81.4792 223.098C78.3501 227.504 77.7609 240.001 81.3633 243.101L80.4072 244.159Z" fill="white"/>
<path d="M90.7123 243.934L89.4084 243.306C99.5493 222.826 103.002 205.257 104.127 194.136C105.576 179.905 103.862 169.98 101.954 165.807C97.5549 156.158 100.81 143.932 100.95 143.423L102.35 143.794C102.316 143.913 99.0905 156.049 103.277 165.226C107.401 174.256 109.753 205.385 90.7123 243.934Z" fill="white"/>
<path d="M86.7718 257.671L92.5666 242.906H71.4302L72.4732 262.909H75.1292L76.1336 259.947L78.6543 262.433H92.7163V257.671H86.7718ZM91.2676 261.004H79.2531L75.4962 257.299L74.0861 261.481H73.8447L72.9561 244.335H90.4515L84.6567 259.099H91.2676V261.004Z" fill="black"/>
<path d="M126.369 257.194L132.164 242.43H111.028L112.071 262.433H114.727L115.731 259.471L118.252 261.957H132.314V257.194H126.369ZM130.865 260.528H118.851L115.094 256.822L113.684 261.004H113.442L112.554 243.858H130.049L124.254 258.623H130.865V260.528Z" fill="black"/>
<path d="M79.5477 93.5291L78.3598 92.71C79.4222 91.2145 79.8085 89.9809 79.5139 89.1522C79.2799 88.641 78.8323 88.2552 78.2874 88.0949L78.6447 86.709C79.6457 86.9843 80.4651 87.6943 80.8709 88.6379C81.3634 89.9476 80.9191 91.5955 79.5477 93.5291Z" fill="#E5D1B8"/>
<path d="M84.2752 113.195C81.0978 113.195 77.3553 111.009 77.1332 110.88L77.8768 109.651C79.736 110.747 84.9127 113.095 86.569 110.804L87.7473 111.633C86.9215 112.785 85.6467 113.195 84.2752 113.195Z" fill="#E5D1B8"/>
<path d="M96.5022 98.2017L95.208 97.5635C95.359 97.2662 95.3731 96.9192 95.2466 96.611C94.6478 94.9964 91.4414 93.339 90.2583 92.8389L90.8281 91.5244C91.311 91.734 95.6571 93.639 96.6229 96.1204C96.8805 96.8001 96.8367 97.5554 96.5022 98.2017Z" fill="#E5D1B8"/>
<path d="M87.1147 104.079C84.5795 104.079 80.9191 101.631 80.4749 101.326L81.2958 100.154C82.928 101.264 86.0523 102.917 87.472 102.617C87.6875 102.587 87.8776 102.463 87.9887 102.278L89.2346 103.012C88.9164 103.532 88.3903 103.895 87.7859 104.012C87.5651 104.057 87.3402 104.08 87.1147 104.079Z" fill="#E5D1B8"/>
<path d="M98.5111 111.271L97.0624 111.166C97.0962 110.69 97.4535 106.556 99.4769 104.936C100.109 104.424 100.932 104.199 101.742 104.317L101.539 105.746C101.126 105.678 100.704 105.793 100.385 106.06C99.0809 107.094 98.5883 110.17 98.5111 111.271Z" fill="#E5D1B8"/>
<path d="M93.6387 85.0754C93.4375 85.0762 93.2378 85.0407 93.0496 84.9706C91.5622 84.4276 90.9151 81.8748 90.8041 81.37L92.2141 81.0557C92.4314 82.0082 93.0157 83.437 93.5518 83.6323C93.5952 83.6323 93.7111 83.6894 93.9719 83.4989L94.8411 84.642C94.5 84.9138 94.0771 85.0662 93.6387 85.0754Z" fill="#E5D1B8"/>
<path d="M123.037 21.0891L121.792 20.3652L126.287 12.8592L121.323 16.4169L128.692 2.40039L121.516 4.63408L116.33 18.122L114.978 17.6171L120.415 3.48152L131.59 0L125.437 11.7019L131.097 7.63933L123.037 21.0891Z" fill="black"/>
<path d="M102.022 86.6617L124.776 20.7748L114.596 17.0361L89.6595 59.9478L90.9199 60.6575L115.239 18.7983L122.965 21.6559L101.297 84.3327L100.409 81.4751L99.0277 81.8942L100.501 86.6331V86.695H100.544L108.212 111.337L71.9951 120.172C72.2704 113.175 73.2072 88.9335 72.9368 87.7095L71.5171 88C71.575 88.381 71.5412 90.7004 71.4543 94.0772L41.0462 20.4891L50.9505 21.3892L72.5022 65.363L73.806 64.7439L51.9018 20.0509L38.8104 18.865L70.899 96.6347L71.3529 96.4537C71.1452 103.464 70.7782 113.471 70.474 121.086L70.4354 122.039L76.7807 120.505V128.33L104.306 122.029L101.66 114.442L110.038 112.399L102.022 86.6617ZM102.403 120.977L78.2293 126.511V120.134L100.235 114.79L102.403 120.977Z" fill="black"/>
<path d="M40.6407 20.5702L35.1888 9.84942L40.4282 13.6072L34.2761 1.90527L45.4504 5.38679L51.1872 20.4892L49.5309 20.0273L44.3445 6.53936L37.1687 4.31042L44.5377 18.327L39.1534 14.4644L41.9349 19.932L40.6407 20.5702Z" fill="black"/>
<path d="M54.7992 33.944L53.3505 33.7058C53.6933 31.6817 50.4966 28.3335 49.2362 27.2095L50.202 26.1475C50.7477 26.6142 55.3304 30.7911 54.7992 33.944Z" fill="#E5D1B8"/>
<path d="M60.2801 51.8467C58.165 50.8037 56.2769 46.2696 56.0692 45.76L57.4117 45.2266C58.1215 46.9745 59.7006 49.9654 60.9272 50.5703L60.2801 51.8467Z" fill="#E5D1B8"/>
<path d="M111.39 32.7528C111.004 32.5144 110.771 32.0967 110.772 31.6478C110.772 30.219 113.23 28.4473 114.287 27.752L115.089 28.9426C113.602 29.8952 112.235 31.2097 112.221 31.6478C112.218 31.6129 112.204 31.5797 112.182 31.5526L111.39 32.7528Z" fill="#E5D1B8"/>
<path d="M112.375 40.9686L112.172 39.5398C114.886 39.1587 114.93 34.5818 114.93 34.5342H116.378C116.378 34.7771 116.335 40.4018 112.375 40.9686Z" fill="#E5D1B8"/>
<path d="M103.34 50.932C101.582 50.3557 101.037 46.3122 100.926 45.0882L102.374 44.9453C102.606 47.1981 103.292 49.4032 103.823 49.5794L103.34 50.932Z" fill="#E5D1B8"/>
<path d="M108.169 55.2189L107.715 53.8663C109.598 53.2424 109.381 48.9608 109.164 47.5081L110.612 47.2891C110.685 47.9844 111.549 54.1092 108.169 55.2189Z" fill="#E5D1B8"/>
<path d="M103.973 64.8203C103.81 64.8216 103.647 64.8007 103.49 64.7584C101.447 64.2393 100.206 60.2862 99.9791 59.5194L101.37 59.1289C101.829 60.7101 102.939 63.1629 103.852 63.4153C103.934 63.4153 104.142 63.4868 104.509 63.1248L105.532 64.1345C105.128 64.5616 104.565 64.809 103.973 64.8203Z" fill="#E5D1B8"/>
<path d="M120.241 25.014H118.793C118.793 24.171 116.75 23.8233 115.654 23.8233V22.3945C116.122 22.3945 120.241 22.466 120.241 25.014Z" fill="#E5D1B8"/>
<path d="M61.9123 63.0052C60.5167 60.7096 62.3517 58.2854 63.5203 57.3281L64.4475 58.4235L63.9646 57.8758L64.4475 58.4235C64.4234 58.4235 62.033 60.4477 63.1582 62.2718L61.9123 63.0052Z" fill="#E5D1B8"/>
<path d="M71.9517 80.7373H70.503C70.503 78.0893 66.9489 77.6559 66.7992 77.6368L66.9634 76.208C68.6873 76.408 71.9517 77.5939 71.9517 80.7373Z" fill="#E5D1B8"/>
<path d="M55.1083 41.2594C55.0263 41.264 54.9441 41.264 54.862 41.2594C53.196 41.026 51.5832 38.3018 51.2789 37.7588L52.5441 37.0635C53.2588 38.3303 54.4274 39.7544 55.0648 39.8449C55.141 39.8562 55.2172 39.825 55.2628 39.7639L56.2866 40.7736C55.9764 41.0857 55.5514 41.2609 55.1083 41.2594Z" fill="#E5D1B8"/>
<path d="M240 265C237.697 265 9.58556 264.523 5.91071 265L5.66443 263.571C8.42177 263.095 230.545 263.538 240 263.571V265Z" fill="black"/>
<path d="M99.6555 68.2496C98.8388 67.6683 97.9653 67.1689 97.0479 66.7589C96.0821 66.3207 96.0821 66.3207 96.0821 64.5442C96.0246 63.0145 95.7096 61.5047 95.1501 60.0769C95.5557 58.4433 95.8744 54.9475 92.074 52.9328L78.7316 27.1191L75.3513 56.5715C74.2068 56.8906 73.0769 57.1383 72.4877 57.9575C71.1549 59.8006 71.7634 60.7627 72.3332 62.9821C72.903 65.2015 71.01 64.5157 69.3779 65.7254C67.7457 66.9351 65.6257 68.583 68.4507 69.9451L77.0318 71.7311L75.4575 74.784C75.0644 75.5448 75.0068 76.4319 75.2983 77.236C75.5899 78.04 76.2048 78.6899 76.998 79.0323L83.6475 81.8899C84.0453 82.0603 84.4741 82.1494 84.9078 82.1519C85.7692 82.1492 86.5917 81.798 87.1832 81.1804C87.7747 80.5629 88.0833 79.733 88.037 78.8847L87.6555 71.774C88.4571 71.6583 89.2062 71.312 89.8092 70.7786C89.8962 70.7024 89.9831 70.6214 90.0652 70.5357L90.0314 71.4644C91.0809 71.5025 92.0467 71.5216 92.9288 71.5216C97.5646 71.5216 100.095 70.9881 100.462 69.9261C100.616 69.5165 100.588 68.9021 99.6555 68.2496ZM79.6443 31.9818L90.041 52.0899C88.0271 51.554 85.9453 51.307 83.86 51.3564C83.86 51.3564 79.4849 50.2943 78.6978 53.6568C78.6978 53.6568 78.6978 53.6949 78.6978 53.7187C78.5121 54.7278 77.8375 55.5834 76.8917 56.0095L79.6443 31.9818ZM85.8688 80.404C85.3879 80.7375 84.7653 80.7989 84.227 80.5659L77.5775 77.7083C77.1487 77.5248 76.8162 77.1744 76.6588 76.7404C76.5014 76.3064 76.5333 75.8274 76.7469 75.4174L78.5094 72.0216L84.3042 73.2266C84.6301 72.6781 84.8695 72.0839 85.0141 71.4644C85.4007 71.5962 85.7982 71.695 86.202 71.7597L86.5883 78.9466C86.6212 79.5226 86.3488 80.0742 85.8688 80.404ZM86.7187 70.3785C86.1442 70.3275 85.5818 70.186 85.0527 69.9594C84.95 69.4578 84.6817 69.0039 84.2897 68.6687C82.4257 67.0399 80.8756 65.7349 82.1843 64.5157C83.493 63.2964 83.2274 61.7152 82.3098 60.4293C82.3007 60.4173 82.2926 60.4045 82.2857 60.3912C82.0813 60.0773 82.1306 59.6646 82.4033 59.406C82.676 59.1475 83.0961 59.1153 83.406 59.3291L85.3376 60.677L90.6929 60.8389C90.6929 60.8913 90.6929 60.9484 90.6929 61.0056C90.6903 61.0277 90.6903 61.0501 90.6929 61.0723V61.1866C90.6957 61.2103 90.6957 61.2343 90.6929 61.258C90.7557 62.2582 90.6929 66.2017 89.7272 68.6306C89.4921 69.0249 89.1973 69.3814 88.8531 69.6879C88.2726 70.2054 87.4972 70.4563 86.7187 70.3785ZM90.6736 70.0404C90.8081 69.8034 90.9274 69.5585 91.031 69.3069C92.5135 66.8589 92.4797 63.4345 92.1513 60.9484V60.896L93.909 60.9484C94.3443 62.1016 94.5936 63.3149 94.6479 64.5442C94.6479 66.997 94.9618 67.3733 96.4346 68.0543C97.2725 68.4265 98.0701 68.8813 98.8153 69.4117L98.9312 69.4974C97.864 69.9499 94.1022 70.1356 90.6736 70.0213V70.0404Z" fill="black"/>
<path d="M24.0869 119.453L23.237 120.605C17.4423 116.457 13.7288 99.9212 18.1859 91.1341C22.4885 82.647 21.3248 75.7459 13.9026 65.6776C8.32998 58.1144 10.7396 52.1373 12.763 49.1606L9.65795 49.5416L12.0724 44.5265C5.22978 43.0977 0 35.8775 0 27.1571C0 17.4269 6.48531 9.53516 14.4869 9.53516C22.4885 9.53516 28.9738 17.4269 28.9738 27.1571C28.9738 36.5538 22.928 44.2312 15.3078 44.7504L17.3843 48.5891L14.7284 48.9177C12.9755 50.9228 9.14608 56.7999 15.0712 64.8393C22.7976 75.2839 24.0097 82.8375 19.4801 91.7723C17.592 95.5014 17.1622 101.34 18.3356 107.394C19.4221 112.99 21.6821 117.724 24.0869 119.453Z" fill="#F9B572"/>
<path d="M139.644 40.4111L129.252 49.5412L133.951 50.3127L142.522 43.9736L139.644 40.4111ZM133.574 48.7887L132.478 48.6077L139.47 42.4781L140.436 43.6974L133.574 48.7887Z" fill="#F9B572"/>
<path d="M77.703 6.28711L70.6189 11.6594L71.5074 14.2979L83.2032 9.6829L77.703 6.28711ZM72.3187 12.1738L77.7899 8.02072L80.0161 9.39714L72.396 12.3929L72.3187 12.1738Z" fill="#F9B572"/>
<path d="M43.0309 104.312L35.01 110.637V116.124L47.01 108.232L43.0309 104.312ZM36.4587 111.323L42.9247 106.218L44.7404 108.008L36.4587 113.457V111.323Z" fill="#F9B572"/>
<defs>
<linearGradient id="paint0_linear_404_3706" x1="97.716" y1="136.457" x2="97.716" y2="243.859" gradientUnits="userSpaceOnUse">
<stop stop-color="#738961"/>
<stop offset="1" stop-color="#7FB04F"/>
</linearGradient>
</defs>
</svg>
