<svg width="20" height="20" viewBox="0 0 20 20" fill="none" xmlns="http://www.w3.org/2000/svg">
<path fill-rule="evenodd" clip-rule="evenodd" d="M9.99984 1.04175C10.0901 1.04169 10.1793 1.06118 10.2613 1.09887C10.3433 1.13656 10.4161 1.19155 10.4748 1.26008L12.9748 4.17675C13.0827 4.30273 13.1361 4.46639 13.1233 4.63173C13.1105 4.79708 13.0325 4.95056 12.9065 5.05841C12.7805 5.16627 12.6169 5.21966 12.4515 5.20685C12.2862 5.19403 12.1327 5.11606 12.0248 4.99008L10.6248 3.35675V12.5001C10.6248 12.6658 10.559 12.8248 10.4418 12.942C10.3246 13.0592 10.1656 13.1251 9.99984 13.1251C9.83408 13.1251 9.67511 13.0592 9.5579 12.942C9.44069 12.8248 9.37484 12.6658 9.37484 12.5001V3.35591L7.97484 4.99008C7.92143 5.05246 7.85627 5.10371 7.78306 5.1409C7.70985 5.17809 7.63003 5.2005 7.54816 5.20685C7.46629 5.21319 7.38397 5.20335 7.3059 5.17788C7.22783 5.15241 7.15555 5.11182 7.09317 5.05841C7.03079 5.00501 6.97954 4.93984 6.94235 4.86663C6.90516 4.79342 6.88275 4.7136 6.8764 4.63173C6.87006 4.54986 6.8799 4.46754 6.90537 4.38948C6.93084 4.31141 6.97143 4.23913 7.02484 4.17675L9.52484 1.26008C9.58356 1.19155 9.65642 1.13656 9.73841 1.09887C9.82041 1.06118 9.90959 1.04169 9.99984 1.04175ZM5.82984 6.87675C5.9956 6.87586 6.15492 6.94086 6.27276 7.05745C6.39059 7.17403 6.45729 7.33265 6.45817 7.49841C6.45905 7.66418 6.39405 7.8235 6.27747 7.94133C6.16088 8.05917 6.00226 8.12586 5.8365 8.12675C4.92567 8.13175 4.27984 8.15508 3.789 8.24508C3.31734 8.33258 3.04317 8.47175 2.84067 8.67425C2.60984 8.90508 2.45984 9.22925 2.37734 9.84091C2.29317 10.4701 2.2915 11.3042 2.2915 12.5001V13.3334C2.2915 14.5301 2.29317 15.3642 2.37734 15.9934C2.45984 16.6051 2.61067 16.9284 2.84067 17.1601C3.0715 17.3901 3.39484 17.5401 4.00734 17.6226C4.63567 17.7076 5.47067 17.7084 6.6665 17.7084H13.3332C14.529 17.7084 15.3632 17.7076 15.9932 17.6226C16.6048 17.5401 16.9282 17.3901 17.159 17.1592C17.3898 16.9284 17.5398 16.6051 17.6223 15.9934C17.7065 15.3642 17.7082 14.5301 17.7082 13.3334V12.5001C17.7082 11.3042 17.7065 10.4701 17.6223 9.84008C17.5398 9.22925 17.389 8.90508 17.159 8.67425C16.9557 8.47175 16.6823 8.33258 16.2107 8.24508C15.7198 8.15508 15.074 8.13175 14.1632 8.12675C14.0811 8.12631 13.9999 8.10971 13.9242 8.0779C13.8486 8.04608 13.7799 7.99968 13.7222 7.94133C13.6645 7.88299 13.6188 7.81384 13.5878 7.73785C13.5568 7.66185 13.5411 7.58049 13.5415 7.49841C13.5419 7.41634 13.5585 7.33515 13.5904 7.25949C13.6222 7.18383 13.6686 7.11518 13.7269 7.05745C13.7853 6.99972 13.8544 6.95405 13.9304 6.92305C14.0064 6.89204 14.0878 6.87631 14.1698 6.87675C15.0715 6.88175 15.8223 6.90341 16.4365 7.01591C17.0682 7.13258 17.6057 7.35341 18.0432 7.79091C18.5448 8.29175 18.7598 8.92425 18.8615 9.67425C18.9582 10.3959 18.9582 11.3151 18.9582 12.4542V13.3792C18.9582 14.5192 18.9582 15.4376 18.8615 16.1601C18.7598 16.9101 18.5448 17.5417 18.0432 18.0434C17.5415 18.5451 16.9098 18.7601 16.1598 18.8617C15.4373 18.9584 14.5182 18.9584 13.379 18.9584H6.62067C5.4815 18.9584 4.56234 18.9584 3.83984 18.8617C3.08984 18.7609 2.45817 18.5451 1.9565 18.0434C1.45484 17.5417 1.23984 16.9101 1.139 16.1601C1.0415 15.4376 1.0415 14.5184 1.0415 13.3792V12.4542C1.0415 11.3151 1.0415 10.3959 1.139 9.67341C1.239 8.92341 1.45567 8.29175 1.9565 7.79008C2.394 7.35341 2.9315 7.13175 3.56317 7.01591C4.17734 6.90341 4.92817 6.88175 5.82984 6.87675Z" fill="#A1A8B0"/>
</svg>
