<svg width="20" height="20" viewBox="0 0 20 20" fill="none" xmlns="http://www.w3.org/2000/svg">
<path d="M11.541 3.54199V5.55866" stroke="black" stroke-width="1.5" stroke-linecap="round" stroke-linejoin="round"/>
<path d="M11.541 14.8002V16.4868" stroke="black" stroke-width="1.5" stroke-linecap="round" stroke-linejoin="round"/>
<path d="M11.541 11.9373V7.9198" stroke="black" stroke-width="1.5" stroke-linecap="round" stroke-linejoin="round"/>
<path fill-rule="evenodd" clip-rule="evenodd" d="M15.5849 16.6667C17.1033 16.6667 18.3332 15.4522 18.3332 13.9527V11.7922C17.3284 11.7922 16.5193 10.9931 16.5193 10.0009C16.5193 9.00867 17.3284 8.2087 18.3332 8.2087L18.3323 6.04742C18.3323 4.54791 17.1016 3.33337 15.5841 3.33337H4.4156C2.89808 3.33337 1.66737 4.54791 1.66737 6.04742L1.6665 8.27908C2.67123 8.27908 3.4804 9.00867 3.4804 10.0009C3.4804 10.9931 2.67123 11.7922 1.6665 11.7922V13.9527C1.6665 15.4522 2.89634 16.6667 4.41473 16.6667H15.5849Z" stroke="black" stroke-width="1.5" stroke-linecap="round" stroke-linejoin="round"/>
</svg>
