<svg width="50" height="18" viewBox="0 0 50 18" fill="none" xmlns="http://www.w3.org/2000/svg">
<path d="M24.7568 1.17975L21.4163 16.7969H17.3758L20.7166 1.17975H24.7568ZM41.7547 11.2639L43.8811 5.39937L45.1049 11.2639H41.7547ZM46.2641 16.7969H50L46.7361 1.17975H43.29C42.5134 1.17975 41.8586 1.63006 41.5688 2.32449L35.5065 16.7969H39.7497L40.592 14.4645H45.7748L46.2641 16.7969ZM35.7169 11.6984C35.7345 7.57679 30.0192 7.34848 30.0575 5.50685C30.0698 4.9473 30.6037 4.35123 31.7706 4.19878C32.3491 4.12432 33.9456 4.0639 35.7552 4.89778L36.463 1.58475C35.4911 1.23314 34.2403 0.894531 32.6839 0.894531C28.6898 0.894531 25.8801 3.01611 25.8576 6.05657C25.8319 8.30494 27.8647 9.55857 29.393 10.3074C30.9687 11.0728 31.4966 11.5635 31.4889 12.2474C31.478 13.2952 30.2325 13.7592 29.0726 13.7768C27.0403 13.8084 25.8622 13.2274 24.9233 12.7898L24.1898 16.2134C25.1354 16.6462 26.8776 17.0227 28.6817 17.042C32.928 17.042 35.7043 14.9454 35.7169 11.6984ZM18.9835 1.17975L12.4372 16.7969H8.16702L4.94531 4.33331C4.75001 3.56687 4.57966 3.28517 3.98568 2.96131C3.01411 2.43373 1.41029 1.94022 0 1.63322L0.0955423 1.17975H6.97029C7.84597 1.17975 8.63383 1.76248 8.8344 2.77128L10.5362 11.8091L14.739 1.17975H18.9835Z" fill="#1434CB"/>
</svg>
